<?xml version="1.0" encoding="UTF-8"?>
<svg width="241px" height="45px" viewBox="0 0 241 45" version="1.1" xmlns="http://www.w3.org/2000/svg" xmlns:xlink="http://www.w3.org/1999/xlink">
    <!-- Generator: Sketch 44.1 (41455) - http://www.bohemiancoding.com/sketch -->
    <title>Misc/Elements/Edit Menu</title>
    <desc>Created with Sketch.</desc>
    <defs></defs>
    <g id="Components" stroke="none" stroke-width="1" fill="none" fill-rule="evenodd">
        <g id="Misc/Elements/Edit-Menu">
            <path d="M130.013158,36 L121.25,45 L112.486842,36 L8.00131513,36 C3.58200889,36 0,32.4179461 0,27.9992587 L0,8.00074125 C0,3.58343124 3.58231081,0 8.00131513,0 L232.998685,0 C237.417991,0 241,3.58205387 241,8.00074125 L241,27.9992587 C241,32.4165688 237.417689,36 232.998685,36 L130.013158,36 Z M74.5,0 L75.0026178,0 L75.0026178,36 L74.5,36 L74.5,0 Z M169.5,0 L170.002618,0 L170.002618,36 L169.5,36 L169.5,0 Z" id="Popover" fill-opacity="0.800000012" fill="#262728" fill-rule="evenodd"></path>
            <text id="Paste" font-family="SFUIText-Regular, SF UI Text" font-size="14" font-weight="normal" fill="#FFFFFF">
                <tspan x="187.484863" y="23.5">Paste</tspan>
            </text>
            <text id="Select-All" font-family="SFUIText-Regular, SF UI Text" font-size="14" font-weight="normal" fill="#FFFFFF">
                <tspan x="91.5981445" y="23.5">Select All</tspan>
            </text>
            <text id="Select" font-family="SFUIText-Regular, SF UI Text" font-size="14" font-weight="normal" fill="#FFFFFF">
                <tspan x="16.3178711" y="23.5">Select</tspan>
            </text>
        </g>
    </g>
</svg>