<?xml version="1.0" encoding="UTF-8"?>
<svg width="375px" height="667px" viewBox="0 0 375 667" version="1.1" xmlns="http://www.w3.org/2000/svg" xmlns:xlink="http://www.w3.org/1999/xlink">
    <!-- Generator: Sketch 44.1 (41455) - http://www.bohemiancoding.com/sketch -->
    <title>Views/Apple Pay</title>
    <desc>Created with Sketch.</desc>
    <defs>
        <rect id="path-1" x="16" y="100" width="359" height="1"></rect>
        <filter x="-0.1%" y="-25.0%" width="100.1%" height="150.0%" filterUnits="objectBoundingBox" id="filter-2">
            <feOffset dx="0" dy="-0.5" in="SourceAlpha" result="shadowOffsetInner1"></feOffset>
            <feComposite in="shadowOffsetInner1" in2="SourceAlpha" operator="arithmetic" k2="-1" k3="1" result="shadowInnerInner1"></feComposite>
            <feColorMatrix values="0 0 0 0 0.784313725   0 0 0 0 0.780392157   0 0 0 0 0.8  0 0 0 1 0" type="matrix" in="shadowInnerInner1"></feColorMatrix>
        </filter>
        <rect id="path-3" x="16" y="48" width="359" height="1"></rect>
        <filter x="-0.1%" y="-25.0%" width="100.1%" height="150.0%" filterUnits="objectBoundingBox" id="filter-4">
            <feOffset dx="0" dy="-0.5" in="SourceAlpha" result="shadowOffsetInner1"></feOffset>
            <feComposite in="shadowOffsetInner1" in2="SourceAlpha" operator="arithmetic" k2="-1" k3="1" result="shadowInnerInner1"></feComposite>
            <feColorMatrix values="0 0 0 0 0.784313725   0 0 0 0 0.780392157   0 0 0 0 0.8  0 0 0 1 0" type="matrix" in="shadowInnerInner1"></feColorMatrix>
        </filter>
        <rect id="path-5" x="16" y="80" width="359" height="1"></rect>
        <filter x="-0.1%" y="-25.0%" width="100.1%" height="150.0%" filterUnits="objectBoundingBox" id="filter-6">
            <feOffset dx="0" dy="-0.5" in="SourceAlpha" result="shadowOffsetInner1"></feOffset>
            <feComposite in="shadowOffsetInner1" in2="SourceAlpha" operator="arithmetic" k2="-1" k3="1" result="shadowInnerInner1"></feComposite>
            <feColorMatrix values="0 0 0 0 0.784313725   0 0 0 0 0.780392157   0 0 0 0 0.8  0 0 0 1 0" type="matrix" in="shadowInnerInner1"></feColorMatrix>
        </filter>
        <rect id="path-7" x="16" y="64" width="359" height="1"></rect>
        <filter x="-0.1%" y="-25.0%" width="100.1%" height="150.0%" filterUnits="objectBoundingBox" id="filter-8">
            <feOffset dx="0" dy="-0.5" in="SourceAlpha" result="shadowOffsetInner1"></feOffset>
            <feComposite in="shadowOffsetInner1" in2="SourceAlpha" operator="arithmetic" k2="-1" k3="1" result="shadowInnerInner1"></feComposite>
            <feColorMatrix values="0 0 0 0 0.784313725   0 0 0 0 0.780392157   0 0 0 0 0.8  0 0 0 1 0" type="matrix" in="shadowInnerInner1"></feColorMatrix>
        </filter>
        <rect id="path-9" x="16" y="43" width="359" height="1"></rect>
        <filter x="-0.1%" y="-25.0%" width="100.1%" height="150.0%" filterUnits="objectBoundingBox" id="filter-10">
            <feOffset dx="0" dy="-0.5" in="SourceAlpha" result="shadowOffsetInner1"></feOffset>
            <feComposite in="shadowOffsetInner1" in2="SourceAlpha" operator="arithmetic" k2="-1" k3="1" result="shadowInnerInner1"></feComposite>
            <feColorMatrix values="0 0 0 0 0.784313725   0 0 0 0 0.780392157   0 0 0 0 0.8  0 0 0 1 0" type="matrix" in="shadowInnerInner1"></feColorMatrix>
        </filter>
    </defs>
    <g id="Components" stroke="none" stroke-width="1" fill="none" fill-rule="evenodd">
        <g id="Views/Apple-Pay">
            <rect id="Modal-Overlay" fill-opacity="0.401636096" fill="#000000" x="0" y="0" width="375" height="667"></rect>
            <g id="Touch" stroke-width="1" transform="translate(0.000000, 558.000000)">
                <rect id="Background" fill="#F7F7F7" x="0" y="0" width="375" height="109"></rect>
                <text id="Pay-with-Touch-ID" font-family="SFUIText-Regular, SF UI Text" font-size="17" font-weight="normal" letter-spacing="-0.409999996" fill="#000000">
                    <tspan x="119.148086" y="89.5">Pay with Touch ID</tspan>
                </text>
                <g id="Touch-ID" transform="translate(166.500000, 25.000000)" stroke="#FB7B7B" stroke-linecap="round">
                    <path d="M41.529553,16.8291022 C39.2403963,5.47578134 28.1823291,-1.87139776 16.8294784,0.417758955 M13.7870635,1.27106965 C4.19955699,4.75464722 -1.6596521,14.8153176 0.417821642,25.1187739 M41.9464689,20.2850468 C41.9075881,19.1414635 41.7744156,17.9857504 41.5408209,16.8270022 M0.429152239,25.1167052 C0.489958209,25.4177575 0.556719403,25.7159888 0.629749254,26.0113993" id="Stroke-1"></path>
                    <path d="M15.560091,41.2353806 C16.3701687,40.3133724 17.107065,39.3303122 17.7641624,38.2961384 M18.6846554,36.7162013 C21.1628689,32.059125 22.1033803,26.5476116 20.9793448,20.9728881" id="Stroke-7"></path>
                    <path d="M18.4957657,41.8004216 C20.6738479,39.0132472 22.2852095,35.7962618 23.2010154,32.3428386 M23.7082404,30.0008647 C24.2281497,26.9222664 24.2031256,23.6981986 23.5490866,20.4548619 C23.2695045,19.0256082 21.8799,18.1020784 20.4531537,18.3898097 C19.0267209,18.677541 18.1033478,20.0671455 18.3910791,21.4940485 C19.8342806,28.5564739 17.5286687,35.5081007 12.8492731,40.3067575" id="Stroke-9"></path>
                    <path d="M21.6437127,41.9340224 C22.5637177,40.5895774 23.370434,39.1680336 24.0534332,37.6850306 M24.7296624,36.0931651 C26.6680897,31.1218541 27.2516766,25.5556113 26.11875,19.9368358 C25.5511231,17.0899254 22.7802201,15.2486642 19.9355037,15.822403 M18.128729,16.5541265 C16.3640712,17.6909941 15.3833327,19.8297089 15.8234216,22.0117612 C16.7586885,26.5649661 15.9048728,31.0668228 13.7535088,34.8006284 M12.8509519,36.2145753 C12.1261356,37.2439047 11.2957768,38.1997286 10.3717276,39.0642313" id="Stroke-11"></path>
                    <path d="M24.9872575,41.5541731 C28.7653769,35.1135985 30.2805112,27.3138224 28.6884291,19.418606 L28.6921903,19.4170388 C27.8326007,15.1541955 23.680556,12.3953597 19.4178694,13.2549493 C15.1550261,14.1145388 12.3961903,18.2665836 13.2559366,22.5295836 L13.2703545,22.5270761 C14.4328769,28.2931433 12.2841381,33.9578149 8.13350373,37.5525761" id="Stroke-13"></path>
                    <path d="M28.4972978,40.5488216 C31.6582679,34.0602918 32.7947754,26.5216052 31.2581709,18.9006425 C30.114141,13.2184187 24.5809545,9.54200821 18.9002978,10.6874485 C13.2193276,11.8330455 9.54276045,17.3663888 10.6882007,23.0475157 C11.694947,27.9770306 9.78159627,32.8187843 6.14264104,35.7993739" id="Stroke-15"></path>
                    <path d="M4.40522015,33.8320657 C7.1107003,31.658607 8.65168205,28.2107102 8.28673157,24.5959889 M7.93041677,22.3207601 C7.23606782,15.67486 11.6993594,9.46766674 18.382444,8.12007313 C22.4800616,7.29380122 26.5162201,8.47520942 29.4719142,10.9871813 M30.9578132,12.4699515 C32.3570717,14.1099291 33.3707493,16.1185943 33.8271604,18.3818642 C34.4850933,21.6431866 34.6883256,24.8903998 34.480822,28.0581801 M34.3264559,29.7840718 C33.9758164,32.8739199 33.234383,35.8751184 32.1441828,38.7252224" id="Stroke-17"></path>
                    <path d="M35.859459,35.7452597 C36.9691771,31.582895 37.4063857,27.1911657 37.068842,22.7202602 M36.8177414,20.3507098 C36.7047755,19.5234616 36.5649487,18.6944272 36.3976231,17.8645433 C34.677347,9.34716269 26.3815634,3.83544627 17.8648097,5.55258806 M15.3048879,6.29660991 C8.27746886,9.00142493 4.01466604,16.4535321 5.55301119,24.0832075 C6.14900373,26.9973493 5.04462313,29.8611851 2.92487687,31.6573119" id="Stroke-19"></path>
                    <path d="M39.4827582,30.8304291 C39.7308404,28.8377137 39.8370016,26.8117082 39.7923246,24.7652866 M39.6417418,22.0161178 C39.5056806,20.4660119 39.2821353,18.9076136 38.9673179,17.3463918 C38.4704614,14.8887045 37.5043213,12.6455381 36.181086,10.691484 M34.4451993,8.50763305 C30.2415029,3.97543294 23.8495652,1.67413186 17.347191,2.98521269 C11.2249779,4.21965991 6.43386738,8.36796579 4.12678277,13.6949519 M3.18924103,16.4343109 C2.52586286,19.0256503 2.42122817,21.8030722 2.98538507,24.6009515 C3.33909403,26.3234216 2.7995194,28.0194067 1.68871343,29.2178172" id="Stroke-21"></path>
                </g>
            </g>
            <g id="Total" stroke-width="1" transform="translate(0.000000, 457.000000)">
                <rect id="Cell" fill="#F7F7F7" x="0" y="0" width="375" height="101"></rect>
                <g id="Separator" fill-opacity="1" fill="black">
                    <use filter="url(#filter-2)" xlink:href="#path-1"></use>
                </g>
                <text id="$99.99" font-family="SFUIDisplay-Regular, SF UI Display" font-size="20" font-weight="normal" letter-spacing="0.379999995" fill="#000000">
                    <tspan x="291.846953" y="81.5">$99.99</tspan>
                </text>
                <text id="Pay-Company-Inc." font-family="SFUIText-Regular, SF UI Text" font-size="13" font-weight="normal" line-spacing="16" letter-spacing="-0.0799999982" fill="#000000">
                    <tspan x="111" y="80.5">Pay Company Inc.</tspan>
                </text>
                <text id="$0.99" font-family="SFUIText-Regular, SF UI Text" font-size="13" font-weight="normal" line-spacing="16" letter-spacing="-0.0799999982" fill="#8E8E93">
                    <tspan x="323.370703" y="48.5">$0.99</tspan>
                </text>
                <text id="Shipping" font-family="SFUIText-Regular, SF UI Text" font-size="13" font-weight="normal" line-spacing="16" letter-spacing="-0.0799999982" fill="#8E8E93">
                    <tspan x="111" y="48.5">Shipping</tspan>
                </text>
                <text id="$99.00" font-family="SFUIText-Regular, SF UI Text" font-size="13" font-weight="normal" line-spacing="16" letter-spacing="-0.0799999982" fill="#8E8E93">
                    <tspan x="315.262227" y="29.5">$99.00</tspan>
                </text>
                <text id="Subtotal" font-family="SFUIText-Regular, SF UI Text" font-size="13" font-weight="normal" line-spacing="16" letter-spacing="-0.0799999982" fill="#8E8E93">
                    <tspan x="111" y="29.5">Subtotal</tspan>
                </text>
            </g>
            <g id="Contact" stroke-width="1" transform="translate(0.000000, 408.000000)">
                <rect id="Cell" fill="#F7F7F7" x="0" y="0" width="375" height="49"></rect>
                <g id="Separator" fill-opacity="1" fill="black">
                    <use filter="url(#filter-4)" xlink:href="#path-3"></use>
                </g>
                <polygon id="Chevron" fill="#0076FF" points="351 19.5 352.5 18 359 24.5 352.5 31 351 29.5 356 24.5"></polygon>
                <text id="mail@sketchapp.com" font-family="SFUIText-Regular, SF UI Text" font-size="13" font-weight="normal" line-spacing="16" letter-spacing="-0.0799999982" fill="#000000">
                    <tspan x="111" y="28.5">mail@sketchapp.com</tspan>
                </text>
                <text font-family="SFUIText-Regular, SF UI Text" font-size="13" font-weight="normal" line-spacing="16" letter-spacing="-0.0799999982" fill="#8E8E93">
                    <tspan x="16" y="28.5">Contact</tspan>
                </text>
            </g>
            <g id="Shipping" stroke-width="1" transform="translate(0.000000, 327.000000)">
                <rect id="Cell" fill="#F7F7F7" x="0" y="0" width="375" height="81"></rect>
                <g id="Separator" fill-opacity="1" fill="black">
                    <use filter="url(#filter-6)" xlink:href="#path-5"></use>
                </g>
                <polygon id="Chevron" fill="#0076FF" points="351 35.5 352.5 34 359 40.5 352.5 47 351 45.5 356 40.5"></polygon>
                <text id="Jane-Appleseed-1-Inf" font-family="SFUIText-Regular, SF UI Text" font-size="13" font-weight="normal" line-spacing="16" letter-spacing="-0.0799999982" fill="#000000">
                    <tspan x="111" y="28.5">Jane Appleseed</tspan>
                    <tspan x="111" y="44.5">1 Infinite Loop</tspan>
                    <tspan x="111" y="60.5">Cupertino, CA 95014</tspan>
                </text>
                <text font-family="SFUIText-Regular, SF UI Text" font-size="13" font-weight="normal" line-spacing="16" letter-spacing="-0.0799999982" fill="#8E8E93">
                    <tspan x="16" y="28.5">Shipping</tspan>
                </text>
            </g>
            <g id="Card" stroke-width="1" transform="translate(0.000000, 262.000000)">
                <rect id="Cell" fill="#F7F7F7" x="0" y="0" width="375" height="65"></rect>
                <g id="Separator" fill-opacity="1" fill="black">
                    <use filter="url(#filter-8)" xlink:href="#path-7"></use>
                </g>
                <polygon id="Chevron" fill="#0076FF" points="351 27.5 352.5 26 359 32.5 352.5 39 351 37.5 356 32.5"></polygon>
                <text id="Bank-of-Sketch-Credi" font-family="SFUIText-Regular, SF UI Text" font-size="13" font-weight="normal" line-spacing="16" letter-spacing="-0.0799999982" fill="#000000">
                    <tspan x="111" y="28.5">Bank of Sketch Credit</tspan>
                    <tspan x="111" y="44.5">(•••• 4242)</tspan>
                </text>
                <text font-family="SFUIText-Regular, SF UI Text" font-size="13" font-weight="normal" line-spacing="16" letter-spacing="-0.0799999982" fill="#8E8E93">
                    <tspan x="16" y="28.5">Card</tspan>
                </text>
            </g>
            <g id="Header" stroke-width="1" transform="translate(0.000000, 218.000000)">
                <rect id="Cell" fill="#F7F7F7" x="0" y="0" width="375" height="44"></rect>
                <g id="Separator" fill-opacity="1" fill="black">
                    <use filter="url(#filter-10)" xlink:href="#path-9"></use>
                </g>
                <path d="M27.558356,19.7466957 C27.5822087,22.2380238 29.8145647,23.0669047 29.8392693,23.0775532 C29.8205279,23.1363331 29.4827568,24.2591132 28.6632466,25.4193761 C27.9549069,26.4220409 27.219307,27.4212982 26.0615998,27.4421693 C24.9234858,27.4626145 24.5576026,26.788776 23.2563532,26.788776 C21.9555298,26.788776 21.5487563,27.4212982 20.4715519,27.4626145 C19.353883,27.5035048 18.5024272,26.3777431 17.7881244,25.3784858 C16.3284251,23.3343956 15.2128859,19.6027277 16.71092,17.0837134 C17.4550386,15.8327251 18.7844001,15.0404751 20.2279137,15.0204558 C21.3255633,15.0000107 22.3618774,15.7356105 23.0331602,15.7356105 C23.7035911,15.7356105 24.9630983,14.8509314 26.2869225,14.9808433 C26.8410716,15.0034182 28.3966076,15.1976472 29.3954389,16.6139006 C29.3145102,16.6624579 27.5387627,17.6638448 27.558356,19.7466957 Z M25.419281,13.6284811 C24.8259453,14.3248944 23.8518186,14.8658393 22.898137,14.7942812 C22.768225,13.8491185 23.2495382,12.8634913 23.7998538,12.2475808 C24.4132086,11.5520194 25.447819,11.0332234 26.3035342,11 C26.412575,11.9639042 26.0126166,12.9324937 25.419281,13.6284811 Z M34.0100823,12.4371245 C34.4500792,12.3630108 34.9347999,12.296564 35.4659481,12.2373582 C35.9962445,12.1777265 36.5797835,12.1483366 37.217417,12.1483366 C38.1272267,12.1483366 38.9113838,12.2556737 39.5707403,12.4703479 C40.2305227,12.6850221 40.7723195,12.9925514 41.1965566,13.3925098 C41.560736,13.7477445 41.8452645,14.169426 42.0497161,14.6584061 C42.2541677,15.1469603 42.3555417,15.7100541 42.3555417,16.3468357 C42.3555417,17.1169368 42.216259,17.7907752 41.935564,18.368351 C41.6552949,18.9459268 41.2728,19.4306476 40.7876533,19.823365 C40.3016548,20.2156566 39.7257827,20.507852 39.0587593,20.7003773 C38.39131,20.8929025 37.663803,20.9891652 36.8749605,20.9891652 C36.1627874,20.9891652 35.5639145,20.9376263 35.0791938,20.8341227 L35.0791938,27.2317545 L34.0100823,27.2317545 L34.0100823,12.4371245 Z M35.0791938,19.9013122 C35.3368881,19.975 35.6248241,20.0269648 35.9434279,20.0563547 C36.2620316,20.0857446 36.6027843,20.1006525 36.9665378,20.1006525 C38.3308264,20.1006525 39.3884376,19.7897157 40.1389454,19.167842 C40.8890272,18.5459684 41.2642812,17.6348809 41.2642812,16.4358573 C41.2642812,15.8582815 41.1663148,15.3539675 40.9691041,14.9246191 C40.7718935,14.4948448 40.4916244,14.1434436 40.1278709,13.8691377 C39.7645434,13.5952577 39.3322134,13.3882504 38.8317329,13.247264 C38.3308264,13.1067035 37.7775292,13.0364233 37.1709894,13.0364233 C36.6858428,13.0364233 36.2688467,13.0547387 35.9200011,13.0917956 C35.5715815,13.1288524 35.2908865,13.1697428 35.0787679,13.2140406 L35.0787679,19.9013122 L35.0791938,19.9013122 Z M50.5958035,24.699962 C50.5958035,25.1293104 50.6030445,25.5590847 50.6183783,25.9884331 C50.6332863,26.4177815 50.678436,26.831796 50.7546794,27.2317545 L49.7541443,27.2317545 L49.5952684,25.7213682 L49.5492668,25.7213682 C49.4129657,25.9288014 49.2383299,26.1362346 49.0262114,26.3432419 C48.8140928,26.5502491 48.567899,26.7393669 48.2876299,26.9097432 C48.0069349,27.0805455 47.6883311,27.2172725 47.3322445,27.3207761 C46.975732,27.4238538 46.5855702,27.4762446 46.1613331,27.4762446 C45.6306108,27.4762446 45.1637796,27.3906305 44.7616914,27.221106 C44.3600292,27.0503037 44.030351,26.8283885 43.7726567,26.5545085 C43.5149625,26.2802026 43.3220113,25.9658583 43.1929512,25.6101976 C43.0643171,25.254963 43,24.8997283 43,24.5440676 C43,23.2854124 43.5417968,22.315545 44.6258163,21.6336137 C45.7098358,20.9521083 47.3437449,20.6266895 49.5275438,20.6565054 L49.5275438,20.3677175 C49.5275438,20.0857446 49.5007095,19.7633074 49.4478928,19.4004058 C49.3942243,19.0375041 49.2770905,18.6933439 49.0947878,18.3679251 C48.9129111,18.0425063 48.6403089,17.7682004 48.2765554,17.5467111 C47.9128019,17.32437 47.4195624,17.2131994 46.7981147,17.2131994 C46.327876,17.2131994 45.8618967,17.2834796 45.3997508,17.4240401 C44.9371791,17.5646006 44.5167754,17.7609594 44.1376881,18.0126904 L43.7965094,17.2349224 C44.2812301,16.9095036 44.7821366,16.6765139 45.2970991,16.5359534 C45.8129135,16.3953929 46.3508768,16.3246868 46.9118409,16.3246868 C47.6700157,16.3246868 48.2880558,16.4507653 48.7655356,16.7024963 C49.2430153,16.9542274 49.6182692,17.2800721 49.8912973,17.6796047 C50.1638994,18.0795631 50.3500356,18.527227 50.4484279,19.023874 C50.5468203,19.5200951 50.5966553,20.0124828 50.5966553,20.5010369 L50.5966553,24.699962 L50.5958035,24.699962 Z M49.5271178,21.523295 C48.9503939,21.5079612 48.3476876,21.5301101 47.718147,21.5897418 C47.0894583,21.6485216 46.5093268,21.7784336 45.9790304,21.9781999 C45.4478822,22.1779661 45.0087371,22.4705875 44.6603175,22.856064 C44.3114719,23.2411145 44.1368362,23.7518176 44.1368362,24.3885992 C44.1368362,25.1433664 44.3566217,25.6992193 44.7966186,26.054454 C45.2357636,26.4096886 45.7285772,26.5877319 46.2746334,26.5877319 C46.7142043,26.5877319 47.1086256,26.5289521 47.4570452,26.4096886 C47.8058908,26.2912771 48.1083088,26.1319752 48.366429,25.9322089 C48.6245491,25.7328686 48.8400752,25.506694 49.014711,25.254963 C49.1897727,25.002806 49.3218143,24.7442599 49.4133916,24.4771949 C49.4892091,24.1807401 49.5275438,23.9660659 49.5275438,23.8323205 L49.5275438,21.523295 L49.5271178,21.523295 Z M52.948691,16.5687509 L55.7224179,23.4996606 C55.8744788,23.8847112 56.0184468,24.2808362 56.1551738,24.6884616 C56.2919008,25.0952351 56.412868,25.4696371 56.5189273,25.8099639 L56.564503,25.8099639 C56.6709882,25.4845451 56.7919554,25.11781 56.9282565,24.7101846 C57.0649835,24.3034111 57.2166185,23.8847112 57.3831613,23.4545109 L59.9762893,16.5683249 L61.1126996,16.5683249 L57.9522183,24.3881733 C57.6336146,25.2170542 57.3341781,25.9692658 57.053909,26.6431042 C56.77364,27.3169427 56.4886855,27.9239084 56.2007495,28.4644274 C55.9123875,29.0049463 55.6214699,29.482426 55.3245891,29.8977184 C55.0294121,30.3117329 54.698882,30.6750605 54.3355544,30.9859973 C53.9117433,31.355714 53.5207296,31.6266124 53.1642171,31.7969887 C52.8081305,31.9673651 52.5696036,32.0747021 52.4482105,32.119 L52.0836051,31.2526363 C52.3566332,31.1337988 52.6599031,30.9787563 52.9938407,30.786231 C53.3273524,30.5932798 53.6536231,30.3419747 53.971375,30.0310379 C54.244829,29.7643989 54.5442655,29.4129977 54.8701102,28.9755564 C55.195955,28.538967 55.4877245,28.0095225 55.7458446,27.3872229 C55.83657,27.1503998 55.8825717,26.9945054 55.8825717,26.9203917 C55.8825717,26.817314 55.836996,26.6614197 55.7458446,26.4539865 L51.8110029,16.5683249 L52.948691,16.5683249 L52.948691,16.5687509 Z" id="Pay" fill="#262626"></path>
                <text id="Cancel" font-family="SFUIText-Regular, SF UI Text" font-size="18" font-weight="normal" letter-spacing="-0.449999988" fill="#0076FF">
                    <tspan x="303.040039" y="27.5">Cance</tspan>
                    <tspan x="354.464844" y="27.5">l</tspan>
                </text>
            </g>
        </g>
    </g>
</svg>