<?xml version="1.0" encoding="UTF-8"?>
<svg width="140px" height="20px" viewBox="0 0 140 20" version="1.1" xmlns="http://www.w3.org/2000/svg" xmlns:xlink="http://www.w3.org/1999/xlink">
    <!-- Generator: Sketch 44.1 (41455) - http://www.bohemiancoding.com/sketch -->
    <title>Overrides/Status Bar/Back - Black</title>
    <desc>Created with Sketch.</desc>
    <defs></defs>
    <g id="Symbols" stroke="none" stroke-width="1" fill="none" fill-rule="evenodd">
        <rect id="Background" fill="#EFEFF4" x="-100" y="-280" width="3142" height="4674"></rect>
        <g id="Overrides/Status-Bar/Back---Black" fill="#030303">
            <path d="M131.894421,12.4385043 L129.772539,14.5 L127.610165,12.4053177 C128.127859,11.8314341 128.889007,11.4689119 129.737563,11.4689119 C130.602362,11.4689119 131.376374,11.8454456 131.894421,12.4385043 Z M134.073496,10.3214425 L134.073496,10.3214425 L132.984622,11.3793293 C132.185631,10.518235 131.026884,9.97668394 129.737563,9.97668394 C128.463648,9.97668394 127.317205,10.5053708 126.519299,11.3486 L125.42927,10.2926936 C126.506626,9.17975893 128.038272,8.48445596 129.737563,8.48445596 C131.451439,8.48445596 132.994779,9.19174563 134.073496,10.3214425 Z M136.25,8.20687933 L135.16187,9.26404272 C133.803881,7.86552609 131.876003,6.99222798 129.737563,6.99222798 C127.612892,6.99222798 125.69608,7.85431655 124.339558,9.23709441 L123.25,8.18164431 C124.88555,6.52895605 127.18751,5.5 129.737563,5.5 C132.30057,5.5 134.612958,6.53943672 136.25,8.20687933 Z" id="Wi-Fi"></path>
            <path d="M85.75,13 C84.2312169,13 83,11.7687831 83,10.25 C83,8.73121694 84.2312169,7.5 85.75,7.5 C87.2687831,7.5 88.5,8.73121694 88.5,10.25 C88.5,11.7687831 87.2687831,13 85.75,13 Z M92.75,13 C91.2312169,13 90,11.7687831 90,10.25 C90,8.73121694 91.2312169,7.5 92.75,7.5 C94.2687831,7.5 95.5,8.73121694 95.5,10.25 C95.5,11.7687831 94.2687831,13 92.75,13 Z M99.75,13 C98.2312169,13 97,11.7687831 97,10.25 C97,8.73121694 98.2312169,7.5 99.75,7.5 C101.268783,7.5 102.5,8.73121694 102.5,10.25 C102.5,11.7687831 101.268783,13 99.75,13 Z M106.75,13 C105.231217,13 104,11.7687831 104,10.25 C104,8.73121694 105.231217,7.5 106.75,7.5 C108.268783,7.5 109.5,8.73121694 109.5,10.25 C109.5,11.7687831 108.268783,13 106.75,13 Z M113.75,13 C112.231217,13 111,11.7687831 111,10.25 C111,8.73121694 112.231217,7.5 113.75,7.5 C115.268783,7.5 116.5,8.73121694 116.5,10.25 C116.5,11.7687831 115.268783,13 113.75,13 Z" id="Mobile-Signal"></path>
            <text id="AppName" font-family="SFUIText-Regular, SF UI Text" font-size="12" font-weight="normal">
                <tspan x="19.5" y="14">AppName</tspan>
            </text>
            <path d="M12.6304348,4 C14.3592174,4 15.5,5.11773217 15.5,6.86956522 L15.5,13.1304348 C15.5,14.8822678 14.3592174,16 12.6304348,16 L6.36956522,16 C4.64078261,16 3.5,14.8822678 3.5,13.1304348 L3.5,6.86956522 C3.5,5.11773217 4.64078261,4 6.36956522,4 L12.6304348,4 Z M6.5,10 L10.5,14 L11.5,13 L8.5,10 L11.5,7 L10.5,6 L6.5,10 Z" id="Back-Icon"></path>
        </g>
    </g>
</svg>