<?xml version="1.0" encoding="UTF-8"?>
<svg width="309px" height="80px" viewBox="0 0 309 80" version="1.1" xmlns="http://www.w3.org/2000/svg" xmlns:xlink="http://www.w3.org/1999/xlink">
    <!-- Generator: Sketch 44.1 (41455) - http://www.bohemiancoding.com/sketch -->
    <title>Actions</title>
    <desc>Created with Sketch.</desc>
    <defs></defs>
    <g id="Symbols" stroke="none" stroke-width="1" fill="none" fill-rule="evenodd">
        <g id="Views/Activity-View" transform="translate(-25.000000, -496.000000)">
            <g id="Actions" transform="translate(0.000000, 476.000000)">
                <rect id="Rectangle" x="0" y="0" width="375" height="116"></rect>
                <g id="More" transform="translate(274.000000, 20.000000)">
                    <text id="More-(text)" font-family="SFUIText-Regular, SF UI Text" font-size="11" font-weight="normal" letter-spacing="0.0700000003" fill="#030303">
                        <tspan x="16.6471094" y="77">More</tspan>
                    </text>
                    <g id="Overrides/Activity-View/More-Icon">
                        <path d="M45.6521739,1.02273262e-15 C54.296087,1.02273262e-15 60,5.58866087 60,14.3478261 L60,45.6521739 C60,54.4113391 54.296087,60 45.6521739,60 L14.3478261,60 C5.70391304,60 0,54.4113391 0,45.6521739 L0,14.3478261 C0,5.58866087 5.70391304,1.0136819e-15 14.3478261,1.01368189e-15 L45.6521739,1.02273262e-15 Z" id="App-Icon" fill="#FFFFFF"></path>
                        <path d="M19,33.5 C17.0670034,33.5 15.5,31.9329966 15.5,30 C15.5,28.0670034 17.0670034,26.5 19,26.5 C20.9329966,26.5 22.5,28.0670034 22.5,30 C22.5,31.9329966 20.9329966,33.5 19,33.5 Z M30,33.5 C28.0670034,33.5 26.5,31.9329966 26.5,30 C26.5,28.0670034 28.0670034,26.5 30,26.5 C31.9329966,26.5 33.5,28.0670034 33.5,30 C33.5,31.9329966 31.9329966,33.5 30,33.5 Z M41,33.5 C39.0670034,33.5 37.5,31.9329966 37.5,30 C37.5,28.0670034 39.0670034,26.5 41,26.5 C42.9329966,26.5 44.5,28.0670034 44.5,30 C44.5,31.9329966 42.9329966,33.5 41,33.5 Z" id="Dot" fill="#686872"></path>
                    </g>
                </g>
                <g id="Print" transform="translate(191.000000, 20.000000)">
                    <text font-family="SFUIText-Regular, SF UI Text" font-size="11" font-weight="normal" letter-spacing="0.0700000003" fill="#030303">
                        <tspan x="17.621875" y="77">Print</tspan>
                    </text>
                    <path d="M45.6521739,1.02273262e-15 C54.296087,1.02273262e-15 60,5.58866087 60,14.3478261 L60,45.6521739 C60,54.4113391 54.296087,60 45.6521739,60 L14.3478261,60 C5.70391304,60 0,54.4113391 0,45.6521739 L0,14.3478261 C0,5.58866087 5.70391304,1.0136819e-15 14.3478261,1.01368189e-15 L45.6521739,1.02273262e-15 Z" id="App-Icon" fill="#FFFFFF"></path>
                    <path d="M42.5,36.5 L42.5,47.5 L17.5,47.5 L17.5,36.5 L12.9989532,36.5 C11.6188195,36.5 10.5,35.3818578 10.5,34.0074247 L10.5,18.9925753 C10.5,17.615964 11.6251345,16.5 12.9989532,16.5 L47.0010468,16.5 C48.3811805,16.5 49.5,17.6181422 49.5,18.9925753 L49.5,34.0074247 C49.5,35.384036 48.3748655,36.5 47.0010468,36.5 L42.5,36.5 Z M17.5,14 C17.5,13.1715729 18.1686896,12.5 19.007562,12.5 L40.992438,12.5 C41.8250415,12.5 42.5,13.1657972 42.5,14 L42.5,15.5 L17.5,15.5 L17.5,14 Z M19.5,28.5 L19.5,45.5 L40.5,45.5 L40.5,28.5 L19.5,28.5 Z" fill="#686872"></path>
                </g>
                <g id="Safari" transform="translate(108.000000, 20.000000)">
                    <text font-family="SFUIText-Regular, SF UI Text" font-size="11" font-weight="normal" letter-spacing="0.0700000003" fill="#030303">
                        <tspan x="14.8046484" y="77">Safari</tspan>
                    </text>
                    <path d="M45.6521739,1.02273262e-15 C54.296087,1.02273262e-15 60,5.58866087 60,14.3478261 L60,45.6521739 C60,54.4113391 54.296087,60 45.6521739,60 L14.3478261,60 C5.70391304,60 0,54.4113391 0,45.6521739 L0,14.3478261 C0,5.58866087 5.70391304,1.0136819e-15 14.3478261,1.01368189e-15 L45.6521739,1.02273262e-15 Z" id="App-Icon" fill="#FFFFFF"></path>
                    <circle id="Face" fill="#686872" cx="30" cy="30" r="17.5"></circle>
                    <path d="M28,30.75 L32,30.75 L30,45.5 L28,30.75 Z M32,29.25 L28,29.25 L30,14.5 L32,29.25 Z" id="Needle" fill="#FFFFFF" transform="translate(30.000000, 30.000000) rotate(-315.000000) translate(-30.000000, -30.000000) "></path>
                    <path d="M29.75,14.7452393 C29.75,14.6097974 29.8659668,14.5 30,14.5 C30.1380712,14.5 30.25,14.6075287 30.25,14.7452393 L30.25,16.2547607 C30.25,16.3902026 30.1340332,16.5 30,16.5 C29.8619288,16.5 29.75,16.3924713 29.75,16.2547607 L29.75,14.7452393 Z M32.1394483,14.8939421 C32.160636,14.7601677 32.2923512,14.6698633 32.4247342,14.6908307 C32.5611055,14.7124298 32.6548351,14.8361442 32.6332924,14.9721593 L32.3971512,16.4630961 C32.3759635,16.5968705 32.2442483,16.6871748 32.1118653,16.6662074 C31.975494,16.6446083 31.8817644,16.520894 31.9033071,16.3848788 L32.1394483,14.8939421 Z M34.4762162,15.4146061 C34.51807,15.2857932 34.6622903,15.2172055 34.7897634,15.258624 C34.9210769,15.3012903 34.9942994,15.4381441 34.9517444,15.5691146 L34.4852767,17.0047549 C34.4434228,17.1335678 34.2992026,17.2021556 34.1717294,17.160737 C34.0404159,17.1180707 33.9671935,16.9812169 34.0097484,16.8502464 L34.4762162,15.4146061 Z M36.7027648,16.294411 C36.7642542,16.1737314 36.9174283,16.1285491 37.0368527,16.1893989 C37.1598751,16.2520819 37.2107874,16.3987053 37.1482681,16.5214063 L36.4629597,17.8663998 C36.4014703,17.9870794 36.2482962,18.0322617 36.1288717,17.9714119 C36.0058494,17.9087289 35.9549371,17.7621055 36.0174564,17.6394045 L36.7027648,16.294411 Z M38.7642691,17.511693 C38.8438799,17.4021182 39.0022363,17.3814538 39.1106714,17.4602366 C39.2223733,17.5413928 39.2497219,17.6941754 39.1687776,17.8055856 L38.2815032,19.0268142 C38.2018924,19.136389 38.043536,19.1570533 37.9351009,19.0782706 C37.823399,18.9971144 37.7960504,18.8443317 37.8769947,18.7329215 L38.7642691,17.511693 Z M40.6099681,19.0364785 C40.70574,18.9407067 40.8653793,18.9450691 40.9601551,19.0398449 C41.0577862,19.137476 41.0608975,19.2926559 40.9635215,19.3900319 L39.8961286,20.4574248 C39.8003567,20.5531967 39.6407173,20.5488342 39.5459415,20.4540585 C39.4483105,20.3564274 39.4451991,20.2012475 39.5425752,20.1038714 L40.6099681,19.0364785 Z M42.1944144,20.8312224 C42.3039892,20.7516116 42.4609807,20.7808935 42.5397634,20.8893286 C42.6209196,21.0010305 42.5997172,21.1547866 42.488307,21.2357309 L41.2670785,22.1230053 C41.1575037,22.2026161 41.0005122,22.1733342 40.9217294,22.0648991 C40.8405732,21.9531972 40.8617756,21.7994411 40.9731858,21.7184968 L42.1944144,20.8312224 Z M43.4785937,22.8517319 C43.5992733,22.7902426 43.7497513,22.8437228 43.8106011,22.9631473 C43.8732841,23.0861696 43.82829,23.2347159 43.705589,23.2972352 L42.3605955,23.9825436 C42.2399159,24.0440329 42.0894379,23.9905527 42.0285881,23.8711283 C41.9659051,23.7481059 42.0108992,23.5995596 42.1336002,23.5370403 L43.4785937,22.8517319 Z M44.4308854,25.0482556 C44.5596983,25.0064017 44.6999575,25.0827634 44.741376,25.2102366 C44.7840423,25.3415501 44.7163644,25.4812289 44.5853939,25.5237838 L43.1497536,25.9902516 C43.0209407,26.0321055 42.8806815,25.9557437 42.839263,25.8282706 C42.7965966,25.6969571 42.8642746,25.5572783 42.9952451,25.5147233 L44.4308854,25.0482556 Z M45.0278407,27.3667076 C45.1616151,27.3455198 45.2882019,27.4428828 45.3091693,27.5752658 C45.3307684,27.7116371 45.2420731,27.8390091 45.1060579,27.8605517 L43.6151212,28.0966929 C43.4813468,28.1178807 43.35476,28.0205178 43.3337926,27.8881347 C43.3121935,27.7517634 43.4008888,27.6243914 43.5369039,27.6028488 L45.0278407,27.3667076 Z M45.2547607,29.75 C45.3902026,29.75 45.5,29.8659668 45.5,30 C45.5,30.1380712 45.3924713,30.25 45.2547607,30.25 L43.7452393,30.25 C43.6097974,30.25 43.5,30.1340332 43.5,30 C43.5,29.8619288 43.6075287,29.75 43.7452393,29.75 L45.2547607,29.75 Z M45.1060579,32.1394483 C45.2398323,32.160636 45.3301367,32.2923512 45.3091693,32.4247342 C45.2875702,32.5611055 45.1638558,32.6548351 45.0278407,32.6332924 L43.5369039,32.3971512 C43.4031295,32.3759635 43.3128252,32.2442483 43.3337926,32.1118653 C43.3553917,31.975494 43.479106,31.8817644 43.6151212,31.9033071 L45.1060579,32.1394483 Z M44.5853939,34.4762162 C44.7142068,34.51807 44.7827945,34.6622903 44.741376,34.7897634 C44.6987097,34.9210769 44.5618559,34.9942994 44.4308854,34.9517444 L42.9952451,34.4852767 C42.8664322,34.4434228 42.7978444,34.2992026 42.839263,34.1717294 C42.8819293,34.0404159 43.0187831,33.9671935 43.1497536,34.0097484 L44.5853939,34.4762162 Z M43.705589,36.7027648 C43.8262686,36.7642542 43.8714509,36.9174283 43.8106011,37.0368527 C43.7479181,37.1598751 43.6012947,37.2107874 43.4785937,37.1482681 L42.1336002,36.4629597 C42.0129206,36.4014703 41.9677383,36.2482962 42.0285881,36.1288717 C42.0912711,36.0058494 42.2378945,35.9549371 42.3605955,36.0174564 L43.705589,36.7027648 Z M42.488307,38.7642691 C42.5978818,38.8438799 42.6185462,39.0022363 42.5397634,39.1106714 C42.4586072,39.2223733 42.3058246,39.2497219 42.1944144,39.1687776 L40.9731858,38.2815032 C40.863611,38.2018924 40.8429467,38.043536 40.9217294,37.9351009 C41.0028856,37.823399 41.1556683,37.7960504 41.2670785,37.8769947 L42.488307,38.7642691 Z M40.9635215,40.6099681 C41.0592933,40.70574 41.0549309,40.8653793 40.9601551,40.9601551 C40.862524,41.0577862 40.7073441,41.0608975 40.6099681,40.9635215 L39.5425752,39.8961286 C39.4468033,39.8003567 39.4511658,39.6407173 39.5459415,39.5459415 C39.6435726,39.4483105 39.7987525,39.4451991 39.8961286,39.5425752 L40.9635215,40.6099681 Z M39.1687776,42.1944144 C39.2483884,42.3039892 39.2191065,42.4609807 39.1106714,42.5397634 C38.9989695,42.6209196 38.8452134,42.5997172 38.7642691,42.488307 L37.8769947,41.2670785 C37.7973839,41.1575037 37.8266658,41.0005122 37.9351009,40.9217294 C38.0468028,40.8405732 38.2005589,40.8617756 38.2815032,40.9731858 L39.1687776,42.1944144 Z M37.1482681,43.4785937 C37.2097574,43.5992733 37.1562772,43.7497513 37.0368527,43.8106011 C36.9138304,43.8732841 36.7652841,43.82829 36.7027648,43.705589 L36.0174564,42.3605955 C35.9559671,42.2399159 36.0094473,42.0894379 36.1288717,42.0285881 C36.2518941,41.9659051 36.4004404,42.0108992 36.4629597,42.1336002 L37.1482681,43.4785937 Z M34.9517444,44.4308854 C34.9935983,44.5596983 34.9172366,44.6999575 34.7897634,44.741376 C34.6584499,44.7840423 34.5187711,44.7163644 34.4762162,44.5853939 L34.0097484,43.1497536 C33.9678945,43.0209407 34.0442563,42.8806815 34.1717294,42.839263 C34.3030429,42.7965966 34.4427217,42.8642746 34.4852767,42.9952451 L34.9517444,44.4308854 Z M32.6332924,45.0278407 C32.6544802,45.1616151 32.5571172,45.2882019 32.4247342,45.3091693 C32.2883629,45.3307684 32.1609909,45.2420731 32.1394483,45.1060579 L31.9033071,43.6151212 C31.8821193,43.4813468 31.9794822,43.35476 32.1118653,43.3337926 C32.2482366,43.3121935 32.3756086,43.4008888 32.3971512,43.5369039 L32.6332924,45.0278407 Z M30.25,45.2547607 C30.25,45.3902026 30.1340332,45.5 30,45.5 C29.8619288,45.5 29.75,45.3924713 29.75,45.2547607 L29.75,43.7452393 C29.75,43.6097974 29.8659668,43.5 30,43.5 C30.1380712,43.5 30.25,43.6075287 30.25,43.7452393 L30.25,45.2547607 Z M27.8605517,45.1060579 C27.839364,45.2398323 27.7076488,45.3301367 27.5752658,45.3091693 C27.4388945,45.2875702 27.3451649,45.1638558 27.3667076,45.0278407 L27.6028488,43.5369039 C27.6240365,43.4031295 27.7557517,43.3128252 27.8881347,43.3337926 C28.024506,43.3553917 28.1182356,43.479106 28.0966929,43.6151212 L27.8605517,45.1060579 Z M25.5237838,44.5853939 C25.48193,44.7142068 25.3377097,44.7827945 25.2102366,44.741376 C25.0789231,44.6987097 25.0057006,44.5618559 25.0482556,44.4308854 L25.5147233,42.9952451 C25.5565772,42.8664322 25.7007974,42.7978444 25.8282706,42.839263 C25.9595841,42.8819293 26.0328065,43.0187831 25.9902516,43.1497536 L25.5237838,44.5853939 Z M23.2972352,43.705589 C23.2357458,43.8262686 23.0825717,43.8714509 22.9631473,43.8106011 C22.8401249,43.7479181 22.7892126,43.6012947 22.8517319,43.4785937 L23.5370403,42.1336002 C23.5985297,42.0129206 23.7517038,41.9677383 23.8711283,42.0285881 C23.9941506,42.0912711 24.0450629,42.2378945 23.9825436,42.3605955 L23.2972352,43.705589 Z M21.2357309,42.488307 C21.1561201,42.5978818 20.9977637,42.6185462 20.8893286,42.5397634 C20.7776267,42.4586072 20.7502781,42.3058246 20.8312224,42.1944144 L21.7184968,40.9731858 C21.7981076,40.863611 21.956464,40.8429467 22.0648991,40.9217294 C22.176601,41.0028856 22.2039496,41.1556683 22.1230053,41.2670785 L21.2357309,42.488307 Z M19.3900319,40.9635215 C19.29426,41.0592933 19.1346207,41.0549309 19.0398449,40.9601551 C18.9422138,40.862524 18.9391025,40.7073441 19.0364785,40.6099681 L20.1038714,39.5425752 C20.1996433,39.4468033 20.3592827,39.4511658 20.4540585,39.5459415 C20.5516895,39.6435726 20.5548009,39.7987525 20.4574248,39.8961286 L19.3900319,40.9635215 Z M17.8055856,39.1687776 C17.6960108,39.2483884 17.5390193,39.2191065 17.4602366,39.1106714 C17.3790804,38.9989695 17.4002828,38.8452134 17.511693,38.7642691 L18.7329215,37.8769947 C18.8424963,37.7973839 18.9994878,37.8266658 19.0782706,37.9351009 C19.1594268,38.0468028 19.1382244,38.2005589 19.0268142,38.2815032 L17.8055856,39.1687776 Z M16.5214063,37.1482681 C16.4007267,37.2097574 16.2502487,37.1562772 16.1893989,37.0368527 C16.1267159,36.9138304 16.17171,36.7652841 16.294411,36.7027648 L17.6394045,36.0174564 C17.7600841,35.9559671 17.9105621,36.0094473 17.9714119,36.1288717 C18.0340949,36.2518941 17.9891008,36.4004404 17.8663998,36.4629597 L16.5214063,37.1482681 Z M15.5691146,34.9517444 C15.4403017,34.9935983 15.3000425,34.9172366 15.258624,34.7897634 C15.2159577,34.6584499 15.2836356,34.5187711 15.4146061,34.4762162 L16.8502464,34.0097484 C16.9790593,33.9678945 17.1193185,34.0442563 17.160737,34.1717294 C17.2034034,34.3030429 17.1357254,34.4427217 17.0047549,34.4852767 L15.5691146,34.9517444 Z M14.9721593,32.6332924 C14.8383849,32.6544802 14.7117981,32.5571172 14.6908307,32.4247342 C14.6692316,32.2883629 14.7579269,32.1609909 14.8939421,32.1394483 L16.3848788,31.9033071 C16.5186532,31.8821193 16.64524,31.9794822 16.6662074,32.1118653 C16.6878065,32.2482366 16.5991112,32.3756086 16.4630961,32.3971512 L14.9721593,32.6332924 Z M14.7452393,30.25 C14.6097974,30.25 14.5,30.1340332 14.5,30 C14.5,29.8619288 14.6075287,29.75 14.7452393,29.75 L16.2547607,29.75 C16.3902026,29.75 16.5,29.8659668 16.5,30 C16.5,30.1380712 16.3924713,30.25 16.2547607,30.25 L14.7452393,30.25 Z M14.8939421,27.8605517 C14.7601677,27.839364 14.6698633,27.7076488 14.6908307,27.5752658 C14.7124298,27.4388945 14.8361442,27.3451649 14.9721593,27.3667076 L16.4630961,27.6028488 C16.5968705,27.6240365 16.6871748,27.7557517 16.6662074,27.8881347 C16.6446083,28.024506 16.520894,28.1182356 16.3848788,28.0966929 L14.8939421,27.8605517 Z M15.4146061,25.5237838 C15.2857932,25.48193 15.2172055,25.3377097 15.258624,25.2102366 C15.3012903,25.0789231 15.4381441,25.0057006 15.5691146,25.0482556 L17.0047549,25.5147233 C17.1335678,25.5565772 17.2021556,25.7007974 17.160737,25.8282706 C17.1180707,25.9595841 16.9812169,26.0328065 16.8502464,25.9902516 L15.4146061,25.5237838 Z M16.294411,23.2972352 C16.1737314,23.2357458 16.1285491,23.0825717 16.1893989,22.9631473 C16.2520819,22.8401249 16.3987053,22.7892126 16.5214063,22.8517319 L17.8663998,23.5370403 C17.9870794,23.5985297 18.0322617,23.7517038 17.9714119,23.8711283 C17.9087289,23.9941506 17.7621055,24.0450629 17.6394045,23.9825436 L16.294411,23.2972352 Z M17.511693,21.2357309 C17.4021182,21.1561201 17.3814538,20.9977637 17.4602366,20.8893286 C17.5413928,20.7776267 17.6941754,20.7502781 17.8055856,20.8312224 L19.0268142,21.7184968 C19.136389,21.7981076 19.1570533,21.956464 19.0782706,22.0648991 C18.9971144,22.176601 18.8443317,22.2039496 18.7329215,22.1230053 L17.511693,21.2357309 Z M19.0364785,19.3900319 C18.9407067,19.29426 18.9450691,19.1346207 19.0398449,19.0398449 C19.137476,18.9422138 19.2926559,18.9391025 19.3900319,19.0364785 L20.4574248,20.1038714 C20.5531967,20.1996433 20.5488342,20.3592827 20.4540585,20.4540585 C20.3564274,20.5516895 20.2012475,20.5548009 20.1038714,20.4574248 L19.0364785,19.3900319 Z M20.8312224,17.8055856 C20.7516116,17.6960108 20.7808935,17.5390193 20.8893286,17.4602366 C21.0010305,17.3790804 21.1547866,17.4002828 21.2357309,17.511693 L22.1230053,18.7329215 C22.2026161,18.8424963 22.1733342,18.9994878 22.0648991,19.0782706 C21.9531972,19.1594268 21.7994411,19.1382244 21.7184968,19.0268142 L20.8312224,17.8055856 Z M22.8517319,16.5214063 C22.7902426,16.4007267 22.8437228,16.2502487 22.9631473,16.1893989 C23.0861696,16.1267159 23.2347159,16.17171 23.2972352,16.294411 L23.9825436,17.6394045 C24.0440329,17.7600841 23.9905527,17.9105621 23.8711283,17.9714119 C23.7481059,18.0340949 23.5995596,17.9891008 23.5370403,17.8663998 L22.8517319,16.5214063 Z M25.0482556,15.5691146 C25.0064017,15.4403017 25.0827634,15.3000425 25.2102366,15.258624 C25.3415501,15.2159577 25.4812289,15.2836356 25.5237838,15.4146061 L25.9902516,16.8502464 C26.0321055,16.9790593 25.9557437,17.1193185 25.8282706,17.160737 C25.6969571,17.2034034 25.5572783,17.1357254 25.5147233,17.0047549 L25.0482556,15.5691146 Z M27.3667076,14.9721593 C27.3455198,14.8383849 27.4428828,14.7117981 27.5752658,14.6908307 C27.7116371,14.6692316 27.8390091,14.7579269 27.8605517,14.8939421 L28.0966929,16.3848788 C28.1178807,16.5186532 28.0205178,16.64524 27.8881347,16.6662074 C27.7517634,16.6878065 27.6243914,16.5991112 27.6028488,16.4630961 L27.3667076,14.9721593 Z" id="Dial" fill="#FFFFFF"></path>
                </g>
                <g id="Copy" transform="translate(25.000000, 20.000000)">
                    <text font-family="SFUIText-Regular, SF UI Text" font-size="11" font-weight="normal" letter-spacing="0.0700000003" fill="#030303">
                        <tspan x="16.4430078" y="77">Copy</tspan>
                    </text>
                    <path d="M45.6521739,1.02273262e-15 C54.296087,1.02273262e-15 60,5.58866087 60,14.3478261 L60,45.6521739 C60,54.4113391 54.296087,60 45.6521739,60 L14.3478261,60 C5.70391304,60 0,54.4113391 0,45.6521739 L0,14.3478261 C0,5.58866087 5.70391304,1.0136819e-15 14.3478261,1.01368189e-15 L45.6521739,1.02273262e-15 Z" id="App-Icon" fill="#FFFFFF"></path>
                    <path d="M29.5,18.5 L29.5,26.5 L37.5,26.5 L37.5,47.5 L16.5,47.5 L16.5,18.5 L29.5,18.5 Z M30.5,19.5 L36.5,25.5 L30.5,25.5 L30.5,19.5 Z M37.5,12.5 L43.5,18.5 L37.5,18.5 L37.5,12.5 Z M22.5,17.5 L22.5,12.5 L36.5,12.5 L36.5,19.5 L43.5,19.5 L43.5,41.5 L38.5,41.5 L38.5,26 L30,17.5 L22.5,17.5 Z" fill="#686872"></path>
                </g>
            </g>
        </g>
    </g>
</svg>