<?xml version="1.0" encoding="UTF-8"?>
<svg width="375px" height="106px" viewBox="0 0 375 106" version="1.1" xmlns="http://www.w3.org/2000/svg" xmlns:xlink="http://www.w3.org/1999/xlink">
    <!-- Generator: Sketch 44.1 (41455) - http://www.bohemiancoding.com/sketch -->
    <title>Bars/Navigation/Navigation Bar - Combination</title>
    <desc>Created with Sketch.</desc>
    <defs>
        <rect id="path-1" x="0" y="0" width="375" height="105"></rect>
        <filter x="-0.1%" y="-0.2%" width="100.1%" height="101.0%" filterUnits="objectBoundingBox" id="filter-2">
            <feOffset dx="0" dy="0.5" in="SourceAlpha" result="shadowOffsetOuter1"></feOffset>
            <feComposite in="shadowOffsetOuter1" in2="SourceAlpha" operator="out" result="shadowOffsetOuter1"></feComposite>
            <feColorMatrix values="0 0 0 0 0.698039216   0 0 0 0 0.698039216   0 0 0 0 0.698039216  0 0 0 1 0" type="matrix" in="shadowOffsetOuter1"></feColorMatrix>
        </filter>
    </defs>
    <g id="Components" stroke="none" stroke-width="1" fill="none" fill-rule="evenodd">
        <g id="Bars/Navigation/Navigation-Bar---Combination">
            <g id="Bar">
                <use fill="black" fill-opacity="1" filter="url(#filter-2)" xlink:href="#path-1"></use>
                <use fill-opacity="0.9" fill="#FAFAFA" fill-rule="evenodd" xlink:href="#path-1"></use>
            </g>
            <g id="Overrides/Navigation-Bar/Segmented-Control/First" transform="translate(0.000000, 64.000000)">
                <rect id="Button-Background" stroke="#0076FF" stroke-width="1" x="10.5" y="0.5" width="354" height="28" rx="4"></rect>
                <g id="Active-Tab" stroke-width="1" fill-rule="evenodd">
                    <rect id="Stretch" x="0" y="0" width="128" height="29"></rect>
                    <path d="M13.993686,0 C11.7880341,0 10,1.79219474 10,4.00187852 L10,24.9981215 C10,27.208298 11.7828857,29 13.993686,29 L128,29 L128,0 L13.993686,0 Z" fill="#0076FF"></path>
                </g>
                <rect id="Active-Tab" fill="#0076FF" fill-rule="evenodd" x="246" y="0" width="1" height="29"></rect>
                <text id="Third" font-family="SFUIText-Regular, SF UI Text" font-size="13" font-weight="normal" letter-spacing="-0.0799999982" fill="#0076FF">
                    <tspan x="290.24834" y="19">Third</tspan>
                </text>
                <text id="Second" font-family="SFUIText-Regular, SF UI Text" font-size="13" font-weight="normal" letter-spacing="-0.0799999982" fill="#0076FF">
                    <tspan x="164.121836" y="19">Second</tspan>
                </text>
                <text id="First" font-family="SFUIText-Regular, SF UI Text" font-size="13" font-weight="normal" letter-spacing="-0.0799999982" fill="#FFFFFF">
                    <tspan x="56.2366211" y="19">First</tspan>
                </text>
            </g>
            <g id="Overrides/Navigation-Bar/Right/Action-Text---Bold" transform="translate(253.000000, 20.000000)" font-size="17" font-family="SFUIText-Semibold, SF UI Text" letter-spacing="-0.409999996" fill="#0076FF" font-weight="500">
                <text id="Confirm">
                    <tspan x="72.2933203" y="28">Done</tspan>
                </text>
            </g>
            <g id="Overrides/Navigation-Bar/Center/Title" transform="translate(100.000000, 20.000000)" font-size="17" font-family="SFUIText-Semibold, SF UI Text" letter-spacing="-0.409999996" fill="#030303" font-weight="500">
                <text id="Title-Label">
                    <tspan x="69.9478516" y="28">Title</tspan>
                </text>
            </g>
            <g id="Overrides/Navigation-Bar/Left/Action-Text" transform="translate(0.000000, 20.000000)" font-size="17" font-family="SFUIText-Regular, SF UI Text" letter-spacing="-0.409999996" fill="#0076FF" font-weight="normal">
                <text id="Cancel">
                    <tspan x="8" y="28">Cancel</tspan>
                </text>
            </g>
            <g id="Bars/Status/Black" fill="#030303">
                <g id="Pin-Right" stroke-width="1" fill-rule="evenodd" transform="translate(309.000000, 3.000000)">
                    <path d="M37.4937128,2.5 L57.0062872,2.5 C57.8266197,2.5 58.5,3.17394722 58.5,4.00530324 L58.5,10.4946968 C58.5,11.3319784 57.831242,12 57.0062872,12 L37.4937128,12 C36.6733803,12 36,11.3260528 36,10.4946968 L36,4.00530324 C36,3.16802155 36.668758,2.5 37.4937128,2.5 Z M59,5.5 L59.75,5.5 C60.1671014,5.5 60.5,5.83232111 60.5,6.24225998 L60.5,8.25774002 C60.5,8.66440529 60.1642136,9 59.75,9 L59,9 L59,5.5 Z M37.5081524,3 C36.9513652,3 36.5,3.45699692 36.5,4.00844055 L36.5,10.4915594 C36.5,11.0485058 36.9490581,11.5 37.5081524,11.5 L56.9918476,11.5 C57.5486348,11.5 58,11.0430031 58,10.4915594 L58,4.00844055 C58,3.45149422 57.5509419,3 56.9918476,3 L37.5081524,3 Z M37.5067444,3.5 L56.9932556,3.5 C57.2697754,3.5 57.5,3.72031886 57.5,3.99209595 L57.5,10.5079041 C57.5,10.783628 57.2731228,11 56.9932556,11 L37.5067444,11 C37.2302246,11 37,10.7796811 37,10.5079041 L37,3.99209595 C37,3.71637201 37.2268772,3.5 37.5067444,3.5 Z" id="Battery"></path>
                    <text id="100%" font-family="SFUIText-Regular, SF UI Text" font-size="12" font-weight="normal">
                        <tspan x="2.85351562" y="11.5">100%</tspan>
                    </text>
                </g>
                <text id="Time" font-family="SFUIText-Semibold, SF UI Text" font-size="12" font-weight="500">
                    <tspan x="163.239258" y="14.5">9:41 AM</tspan>
                </text>
                <g id="Overrides/Status-Bar/Signal---Black">
                    <path d="M96.1444208,12.4385043 L94.0225391,14.5 L91.8601652,12.4053177 C92.3778594,11.8314341 93.1390073,11.4689119 93.987563,11.4689119 C94.8523616,11.4689119 95.626374,11.8454456 96.1444208,12.4385043 Z M98.3234964,10.3214425 L98.3234964,10.3214425 L97.2346215,11.3793293 C96.4356305,10.518235 95.2768836,9.97668394 93.987563,9.97668394 C92.713648,9.97668394 91.567205,10.5053708 90.7692987,11.3486 L89.6792698,10.2926936 C90.7566264,9.17975893 92.2882723,8.48445596 93.987563,8.48445596 C95.7014387,8.48445596 97.2447794,9.19174563 98.3234964,10.3214425 Z M100.5,8.20687933 L99.4118698,9.26404272 C98.0538809,7.86552609 96.1260026,6.99222798 93.987563,6.99222798 C91.8628921,6.99222798 89.9460798,7.85431655 88.5895579,9.23709441 L87.5,8.18164431 C89.1355496,6.52895605 91.4375103,5.5 93.987563,5.5 C96.5505699,5.5 98.8629578,6.53943672 100.5,8.20687933 Z" id="Wi-Fi" fill-rule="evenodd"></path>
                    <text id="Carrier" font-family="SFUIText-Regular, SF UI Text" font-size="12" font-weight="normal">
                        <tspan x="44" y="14.5">Framer</tspan>
                    </text>
                    <path d="M9.25,13 C7.73121694,13 6.5,11.7687831 6.5,10.25 C6.5,8.73121694 7.73121694,7.5 9.25,7.5 C10.7687831,7.5 12,8.73121694 12,10.25 C12,11.7687831 10.7687831,13 9.25,13 Z M16.25,13 C14.7312169,13 13.5,11.7687831 13.5,10.25 C13.5,8.73121694 14.7312169,7.5 16.25,7.5 C17.7687831,7.5 19,8.73121694 19,10.25 C19,11.7687831 17.7687831,13 16.25,13 Z M23.25,13 C21.7312169,13 20.5,11.7687831 20.5,10.25 C20.5,8.73121694 21.7312169,7.5 23.25,7.5 C24.7687831,7.5 26,8.73121694 26,10.25 C26,11.7687831 24.7687831,13 23.25,13 Z M30.25,13 C28.7312169,13 27.5,11.7687831 27.5,10.25 C27.5,8.73121694 28.7312169,7.5 30.25,7.5 C31.7687831,7.5 33,8.73121694 33,10.25 C33,11.7687831 31.7687831,13 30.25,13 Z M37.25,13 C35.7312169,13 34.5,11.7687831 34.5,10.25 C34.5,8.73121694 35.7312169,7.5 37.25,7.5 C38.7687831,7.5 40,8.73121694 40,10.25 C40,11.7687831 38.7687831,13 37.25,13 Z" id="Mobile-Signal" fill-rule="evenodd"></path>
                </g>
            </g>
        </g>
    </g>
</svg>