<?xml version="1.0" encoding="UTF-8"?>
<svg width="375px" height="45px" viewBox="0 0 375 45" version="1.1" xmlns="http://www.w3.org/2000/svg" xmlns:xlink="http://www.w3.org/1999/xlink">
    <!-- Generator: Sketch 44.1 (41455) - http://www.bohemiancoding.com/sketch -->
    <title>Bars/Toolbar/Icon/5 Icons</title>
    <desc>Created with Sketch.</desc>
    <defs>
        <rect id="path-1" x="0" y="0.5" width="375" height="44.5"></rect>
        <filter x="-0.1%" y="-0.6%" width="100.1%" height="101.1%" filterUnits="objectBoundingBox" id="filter-2">
            <feOffset dx="0" dy="0.5" in="SourceAlpha" result="shadowOffsetInner1"></feOffset>
            <feComposite in="shadowOffsetInner1" in2="SourceAlpha" operator="arithmetic" k2="-1" k3="1" result="shadowInnerInner1"></feComposite>
            <feColorMatrix values="0 0 0 0 0.698039216   0 0 0 0 0.698039216   0 0 0 0 0.698039216  0 0 0 1 0" type="matrix" in="shadowInnerInner1"></feColorMatrix>
        </filter>
    </defs>
    <g id="Components" stroke="none" stroke-width="1" fill="none" fill-rule="evenodd">
        <g id="Bars/Toolbar/Icon/5-Icons">
            <g id="Bar">
                <use fill-opacity="0.9" fill="#FAFAFA" fill-rule="evenodd" xlink:href="#path-1"></use>
                <use fill="black" fill-opacity="1" filter="url(#filter-2)" xlink:href="#path-1"></use>
            </g>
            <g id="Overrides/Icons/Icon-5" transform="translate(338.000000, 11.000000)" stroke="#0076FF" stroke-width="1">
                <path d="M12,1.57735027 L2.97372056,6.78867513 L2.97372056,17.2113249 L12,22.4226497 L21.0262794,17.2113249 L21.0262794,6.78867513 L12,1.57735027 Z" id="Polygon"></path>
            </g>
            <g id="Overrides/Icons/Icon-4" transform="translate(259.000000, 11.000000)" stroke="#0076FF" stroke-width="1">
                <path d="M12,2.09775315 L1.8174551,22 L22.1825449,22 L12,2.09775315 Z" id="Triangle"></path>
            </g>
            <g id="Overrides/Icons/Icon-3" transform="translate(175.500000, 11.000000)" stroke="#0076FF" stroke-width="1">
                <rect id="Rectangle-2" x="1.5" y="1.5" width="21" height="21"></rect>
            </g>
            <g id="Overrides/Icons/Icon-2" transform="translate(92.000000, 11.000000)" stroke-width="1" stroke="#0076FF">
                <circle id="Oval-5" cx="12" cy="12" r="10.5"></circle>
            </g>
            <g id="Overrides/Icons/Icon-1" transform="translate(13.000000, 11.000000)" stroke="#0076FF" stroke-width="1">
                <path d="M18.1512638,21.2778676 L15.7821252,13.998683 L21.9579023,9.50664343 L14.3363198,9.52339772 L12,2.23747737 L9.66368022,9.52339772 L2.04209768,9.50664343 L8.21787483,13.998683 L5.84873621,21.2778676 L12,16.7623381 L18.1512638,21.2778676 Z" id="Star"></path>
            </g>
        </g>
    </g>
</svg>