<?xml version="1.0" encoding="UTF-8"?>
<svg width="355px" height="110px" viewBox="0 0 355 110" version="1.1" xmlns="http://www.w3.org/2000/svg" xmlns:xlink="http://www.w3.org/1999/xlink">
    <!-- Generator: Sketch 44.1 (41455) - http://www.bohemiancoding.com/sketch -->
    <title>Apps</title>
    <desc>Created with Sketch.</desc>
    <defs>
        <rect id="path-1" x="10" y="129" width="355" height="1"></rect>
        <linearGradient x1="50%" y1="0%" x2="50%" y2="100%" id="linearGradient-2">
            <stop stop-color="#55ACEE" offset="0%"></stop>
            <stop stop-color="#3F87C0" offset="100%"></stop>
        </linearGradient>
        <linearGradient x1="50%" y1="0%" x2="50%" y2="100%" id="linearGradient-3">
            <stop stop-color="#1E51EE" offset="0%"></stop>
            <stop stop-color="#19E6FF" offset="100%"></stop>
        </linearGradient>
        <linearGradient x1="50%" y1="0%" x2="50%" y2="100%" id="linearGradient-4">
            <stop stop-color="#67FF81" offset="0%"></stop>
            <stop stop-color="#01B41F" offset="100%"></stop>
        </linearGradient>
    </defs>
    <g id="Symbols" stroke="none" stroke-width="1" fill="none" fill-rule="evenodd">
        <g id="Views/Activity-View" transform="translate(-10.000000, -366.000000)">
            <g id="Apps" transform="translate(0.000000, 346.000000)">
                <rect id="Rectangle" x="0" y="0" width="375" height="130"></rect>
                <g id="Button-Edges" fill="#4D4D4D">
                    <use fill-opacity="0.779999971" style="mix-blend-mode: color-burn;" xlink:href="#path-1"></use>
                    <use style="mix-blend-mode: overlay;" xlink:href="#path-1"></use>
                </g>
                <g id="More" transform="translate(274.000000, 20.000000)">
                    <text id="More-(text)" font-family="SFUIText-Regular, SF UI Text" font-size="11" font-weight="normal" letter-spacing="0.0700000003" fill="#030303">
                        <tspan x="16.6471094" y="77">More</tspan>
                    </text>
                    <g id="Overrides/Activity-View/More-Icon">
                        <path d="M45.6521739,1.02273262e-15 C54.296087,1.02273262e-15 60,5.58866087 60,14.3478261 L60,45.6521739 C60,54.4113391 54.296087,60 45.6521739,60 L14.3478261,60 C5.70391304,60 0,54.4113391 0,45.6521739 L0,14.3478261 C0,5.58866087 5.70391304,1.0136819e-15 14.3478261,1.01368189e-15 L45.6521739,1.02273262e-15 Z" id="App-Icon" fill="#FFFFFF"></path>
                        <path d="M19,33.5 C17.0670034,33.5 15.5,31.9329966 15.5,30 C15.5,28.0670034 17.0670034,26.5 19,26.5 C20.9329966,26.5 22.5,28.0670034 22.5,30 C22.5,31.9329966 20.9329966,33.5 19,33.5 Z M30,33.5 C28.0670034,33.5 26.5,31.9329966 26.5,30 C26.5,28.0670034 28.0670034,26.5 30,26.5 C31.9329966,26.5 33.5,28.0670034 33.5,30 C33.5,31.9329966 31.9329966,33.5 30,33.5 Z M41,33.5 C39.0670034,33.5 37.5,31.9329966 37.5,30 C37.5,28.0670034 39.0670034,26.5 41,26.5 C42.9329966,26.5 44.5,28.0670034 44.5,30 C44.5,31.9329966 42.9329966,33.5 41,33.5 Z" id="Dot" fill="#686872"></path>
                    </g>
                </g>
                <g id="Twitter" transform="translate(191.000000, 20.000000)">
                    <text font-family="SFUIText-Regular, SF UI Text" font-size="11" font-weight="normal" letter-spacing="0.0700000003" fill="#030303">
                        <tspan x="12.3128613" y="77">Twitter</tspan>
                    </text>
                    <path d="M45.6521739,1.02273262e-15 C54.296087,1.02273262e-15 60,5.58866087 60,14.3478261 L60,45.6521739 C60,54.4113391 54.296087,60 45.6521739,60 L14.3478261,60 C5.70391304,60 0,54.4113391 0,45.6521739 L0,14.3478261 C0,5.58866087 5.70391304,1.0136819e-15 14.3478261,1.01368189e-15 L45.6521739,1.02273262e-15 Z" id="Base" fill="url(#linearGradient-2)"></path>
                    <path d="M45.20987,15.3852664 C43.60081,13.6480602 41.30805,12.5412255 38.77062,12.5011184 C33.89872,12.4241122 29.948525,16.3334726 29.948525,21.2325494 C29.948525,21.9278465 30.02657,22.6058625 30.17707,23.2567397 C22.84514,22.8051262 16.344615,19.1795573 11.99366,13.7144401 C11.23428,15.0240058 10.79912,16.5546018 10.79912,18.1942039 C10.79912,21.2981104 12.35658,24.0528053 14.72373,25.6792914 C13.27764,25.6186659 11.917335,25.2029575 10.727955,24.520981 C10.727095,24.5582568 10.727095,24.5955415 10.727095,24.6334803 C10.727095,28.9680976 13.768055,32.6045055 17.80382,33.4516026 C17.063575,33.6507911 16.2842,33.7550345 15.47967,33.7499684 C14.91121,33.7463889 14.358445,33.686526 13.81987,33.5790401 C14.942385,37.1338662 18.20028,39.7278574 22.06082,39.813627 C19.041575,42.1936162 15.237795,43.6110637 11.10442,43.6029669 C10.39234,43.601572 9.69015,43.5578777 9,43.4738134 C12.904185,46.0176607 17.541305,47.4987579 22.523285,47.4999991 C38.74998,47.5040418 47.623675,34.0943818 47.623675,22.4631382 C47.623675,22.0815292 47.61486,21.7019617 47.59809,21.3242268 C49.321745,20.1045923 50.817285,18.5754418 52,16.8292907 C50.41803,17.5064788 48.717595,17.9562367 46.93331,18.1448965 C48.754575,17.0804838 50.15358,15.376927 50.812125,13.3340558 C49.10739,14.3157611 47.219475,15.0197732 45.20987,15.3852664 Z" id="Icon" fill="#FFFFFF"></path>
                </g>
                <g id="Mail" transform="translate(108.000000, 20.000000)">
                    <text font-family="SFUIText-Regular, SF UI Text" font-size="11" font-weight="normal" letter-spacing="0.0700000003" fill="#030303">
                        <tspan x="19.7789453" y="77">Mail</tspan>
                    </text>
                    <path d="M45.6521739,1.02273262e-15 C54.296087,1.02273262e-15 60,5.58866087 60,14.3478261 L60,45.6521739 C60,54.4113391 54.296087,60 45.6521739,60 L14.3478261,60 C5.70391304,60 0,54.4113391 0,45.6521739 L0,14.3478261 C0,5.58866087 5.70391304,1.0136819e-15 14.3478261,1.01368189e-15 L45.6521739,1.02273262e-15 Z" id="Base" fill="url(#linearGradient-3)"></path>
                    <path d="M23,30.8203887 L26.1431458,33.9664866 L27.1721174,35.0039621 C28.7339138,36.5786659 31.267466,36.5772747 32.8278826,35.0039621 L33.868272,33.9779987 L37,30.8203887 L49.0899658,43 L10.9100342,43 L23,30.8203887 Z M10.7071068,17 L49.2928932,17 L34.5,31.9151485 L32.1210447,34.3050714 C30.949865,35.4859303 29.0503759,35.4861732 27.8789553,34.3050714 L25.5,31.9064553 L10.7071068,17 Z M50,17.7129506 L50,42.5019254 L37.7071068,30.107438 L50,17.7129506 Z M10,17.7129506 L22.2928932,30.107438 L10,42.5019254 L10,17.7129506 Z" id="Envelope" fill="#FFFFFF"></path>
                </g>
                <g id="Message" transform="translate(25.000000, 20.000000)">
                    <text font-family="SFUIText-Regular, SF UI Text" font-size="11" font-weight="normal" letter-spacing="0.0700000003" fill="#030303">
                        <tspan x="7.07335937" y="77">Message</tspan>
                    </text>
                    <path d="M45.6521739,1.02273262e-15 C54.296087,1.02273262e-15 60,5.58866087 60,14.3478261 L60,45.6521739 C60,54.4113391 54.296087,60 45.6521739,60 L14.3478261,60 C5.70391304,60 0,54.4113391 0,45.6521739 L0,14.3478261 C0,5.58866087 5.70391304,1.0136819e-15 14.3478261,1.01368189e-15 L45.6521739,1.02273262e-15 Z" id="Base" fill="url(#linearGradient-4)"></path>
                    <path d="M25.7063038,46.652607 C27.0949927,46.8805107 28.530675,47 30,47 C42.1502651,47 52,38.8291972 52,28.75 C52,18.6708028 42.1502651,10.5 30,10.5 C17.8497349,10.5 8,18.6708028 8,28.75 C8,35.3324098 12.2009014,41.1008914 18.5000003,44.3111564 C18.5000003,44.5141737 18.5000002,44.7427642 18.5000001,45 C18.4999997,46.9377441 15.3215332,49.5 15.5,49.5 C18.6784668,49.5 21,47.5 22.5024414,47.0352783 C23.7564303,46.6474057 24.4828567,46.5341141 25.706299,46.6526062 Z" id="Bubble" fill="#FFFFFF"></path>
                </g>
            </g>
        </g>
    </g>
</svg>