<?xml version="1.0" encoding="UTF-8"?>
<svg width="139px" height="20px" viewBox="0 0 139 20" version="1.1" xmlns="http://www.w3.org/2000/svg" xmlns:xlink="http://www.w3.org/1999/xlink">
    <!-- Generator: Sketch 44.1 (41455) - http://www.bohemiancoding.com/sketch -->
    <title>Overrides/Status Bar/Signal - White</title>
    <desc>Created with Sketch.</desc>
    <defs></defs>
    <g id="Symbols" stroke="none" stroke-width="1" fill="none" fill-rule="evenodd">
        <rect id="Background" fill="#EFEFF4" x="-100" y="-360" width="3142" height="4674"></rect>
        <g id="Overrides/Status-Bar/Signal---White" fill="#FFFFFF">
            <path d="M96.1444208,12.4385043 L94.0225391,14.5 L91.8601652,12.4053177 C92.3778594,11.8314341 93.1390073,11.4689119 93.987563,11.4689119 C94.8523616,11.4689119 95.626374,11.8454456 96.1444208,12.4385043 Z M98.3234964,10.3214425 L98.3234964,10.3214425 L97.2346215,11.3793293 C96.4356305,10.518235 95.2768836,9.97668394 93.987563,9.97668394 C92.713648,9.97668394 91.567205,10.5053708 90.7692987,11.3486 L89.6792698,10.2926936 C90.7566264,9.17975893 92.2882723,8.48445596 93.987563,8.48445596 C95.7014387,8.48445596 97.2447794,9.19174563 98.3234964,10.3214425 Z M100.5,8.20687933 L99.4118698,9.26404272 C98.0538809,7.86552609 96.1260026,6.99222798 93.987563,6.99222798 C91.8628921,6.99222798 89.9460798,7.85431655 88.5895579,9.23709441 L87.5,8.18164431 C89.1355496,6.52895605 91.4375103,5.5 93.987563,5.5 C96.5505699,5.5 98.8629578,6.53943672 100.5,8.20687933 Z" id="Wi-Fi"></path>
            <text id="Carrier" font-family="SFUIText-Regular, SF UI Text" font-size="12" font-weight="normal">
                <tspan x="44" y="14.5">Framer</tspan>
            </text>
            <path d="M9.25,13 C7.73121694,13 6.5,11.7687831 6.5,10.25 C6.5,8.73121694 7.73121694,7.5 9.25,7.5 C10.7687831,7.5 12,8.73121694 12,10.25 C12,11.7687831 10.7687831,13 9.25,13 Z M16.25,13 C14.7312169,13 13.5,11.7687831 13.5,10.25 C13.5,8.73121694 14.7312169,7.5 16.25,7.5 C17.7687831,7.5 19,8.73121694 19,10.25 C19,11.7687831 17.7687831,13 16.25,13 Z M23.25,13 C21.7312169,13 20.5,11.7687831 20.5,10.25 C20.5,8.73121694 21.7312169,7.5 23.25,7.5 C24.7687831,7.5 26,8.73121694 26,10.25 C26,11.7687831 24.7687831,13 23.25,13 Z M30.25,13 C28.7312169,13 27.5,11.7687831 27.5,10.25 C27.5,8.73121694 28.7312169,7.5 30.25,7.5 C31.7687831,7.5 33,8.73121694 33,10.25 C33,11.7687831 31.7687831,13 30.25,13 Z M37.25,13 C35.7312169,13 34.5,11.7687831 34.5,10.25 C34.5,8.73121694 35.7312169,7.5 37.25,7.5 C38.7687831,7.5 40,8.73121694 40,10.25 C40,11.7687831 38.7687831,13 37.25,13 Z" id="Mobile-Signal"></path>
        </g>
    </g>
</svg>