<?xml version="1.0" encoding="UTF-8"?>
<svg width="375px" height="65px" viewBox="0 0 375 65" version="1.1" xmlns="http://www.w3.org/2000/svg" xmlns:xlink="http://www.w3.org/1999/xlink">
    <!-- Generator: Sketch 44.1 (41455) - http://www.bohemiancoding.com/sketch -->
    <title>Bars/Navigation/Search/Navigation</title>
    <desc>Created with Sketch.</desc>
    <defs>
        <rect id="path-1" x="0" y="0" width="375" height="64"></rect>
        <filter x="-0.1%" y="-0.4%" width="100.1%" height="101.6%" filterUnits="objectBoundingBox" id="filter-2">
            <feOffset dx="0" dy="0.5" in="SourceAlpha" result="shadowOffsetOuter1"></feOffset>
            <feComposite in="shadowOffsetOuter1" in2="SourceAlpha" operator="out" result="shadowOffsetOuter1"></feComposite>
            <feColorMatrix values="0 0 0 0 0.698039216   0 0 0 0 0.698039216   0 0 0 0 0.698039216  0 0 0 1 0" type="matrix" in="shadowOffsetOuter1"></feColorMatrix>
        </filter>
        <rect id="path-3" x="8" y="28" width="359" height="28" rx="5"></rect>
    </defs>
    <g id="Components" stroke="none" stroke-width="1" fill="none" fill-rule="evenodd">
        <g id="Bars/Navigation/Search/Navigation">
            <g id="Bar">
                <use fill="black" fill-opacity="1" filter="url(#filter-2)" xlink:href="#path-1"></use>
                <use fill-opacity="0.9" fill="#FAFAFA" fill-rule="evenodd" xlink:href="#path-1"></use>
            </g>
            <g id="Search-Bar" fill-rule="evenodd" fill="#030303">
                <use style="mix-blend-mode: soft-light;" xlink:href="#path-3"></use>
                <use fill-opacity="0.09" xlink:href="#path-3"></use>
            </g>
            <g id="Float" stroke-width="1" fill-rule="evenodd" transform="translate(154.000000, 33.500000)" fill="#7A797B">
                <path d="M9.49724818,10.5041466 C9.57736566,10.5405938 9.65227305,10.5916129 9.71775156,10.6570914 L13.149991,14.0893308 C13.4448449,14.3841847 13.4484764,14.858606 13.1535412,15.1535412 C12.860648,15.4464344 12.3812716,15.4419317 12.0893308,15.149991 L8.65709139,11.7177516 C8.59136995,11.6520301 8.54011707,11.5773874 8.50341407,11.4977995 C7.66716939,12.1270411 6.6271393,12.5 5.5,12.5 C2.73857625,12.5 0.5,10.2614237 0.5,7.5 C0.5,4.73857625 2.73857625,2.5 5.5,2.5 C8.26142375,2.5 10.5,4.73857625 10.5,7.5 C10.5,8.62746846 10.1268232,9.66777681 9.49724818,10.5041466 Z M5.5,11.5 C7.709139,11.5 9.5,9.709139 9.5,7.5 C9.5,5.290861 7.709139,3.5 5.5,3.5 C3.290861,3.5 1.5,5.290861 1.5,7.5 C1.5,9.709139 3.290861,11.5 5.5,11.5 Z" id="Search-Icon"></path>
                <text id="Search" font-family="SFUIText-Regular, SF UI Text" font-size="14" font-weight="normal" letter-spacing="-0.150000006">
                    <tspan x="21.4915039" y="13.5">Search</tspan>
                </text>
            </g>
            <g id="Bars/Status/Black" fill="#030303">
                <g id="Pin-Right" stroke-width="1" fill-rule="evenodd" transform="translate(309.000000, 3.000000)">
                    <path d="M37.4937128,2.5 L57.0062872,2.5 C57.8266197,2.5 58.5,3.17394722 58.5,4.00530324 L58.5,10.4946968 C58.5,11.3319784 57.831242,12 57.0062872,12 L37.4937128,12 C36.6733803,12 36,11.3260528 36,10.4946968 L36,4.00530324 C36,3.16802155 36.668758,2.5 37.4937128,2.5 Z M59,5.5 L59.75,5.5 C60.1671014,5.5 60.5,5.83232111 60.5,6.24225998 L60.5,8.25774002 C60.5,8.66440529 60.1642136,9 59.75,9 L59,9 L59,5.5 Z M37.5081524,3 C36.9513652,3 36.5,3.45699692 36.5,4.00844055 L36.5,10.4915594 C36.5,11.0485058 36.9490581,11.5 37.5081524,11.5 L56.9918476,11.5 C57.5486348,11.5 58,11.0430031 58,10.4915594 L58,4.00844055 C58,3.45149422 57.5509419,3 56.9918476,3 L37.5081524,3 Z M37.5067444,3.5 L56.9932556,3.5 C57.2697754,3.5 57.5,3.72031886 57.5,3.99209595 L57.5,10.5079041 C57.5,10.783628 57.2731228,11 56.9932556,11 L37.5067444,11 C37.2302246,11 37,10.7796811 37,10.5079041 L37,3.99209595 C37,3.71637201 37.2268772,3.5 37.5067444,3.5 Z" id="Battery"></path>
                    <text id="100%" font-family="SFUIText-Regular, SF UI Text" font-size="12" font-weight="normal">
                        <tspan x="2.85351562" y="11.5">100%</tspan>
                    </text>
                </g>
                <text id="Time" font-family="SFUIText-Semibold, SF UI Text" font-size="12" font-weight="500">
                    <tspan x="163.239258" y="14.5">9:41 AM</tspan>
                </text>
                <g id="Overrides/Status-Bar/Signal---Black">
                    <path d="M96.1444208,12.4385043 L94.0225391,14.5 L91.8601652,12.4053177 C92.3778594,11.8314341 93.1390073,11.4689119 93.987563,11.4689119 C94.8523616,11.4689119 95.626374,11.8454456 96.1444208,12.4385043 Z M98.3234964,10.3214425 L98.3234964,10.3214425 L97.2346215,11.3793293 C96.4356305,10.518235 95.2768836,9.97668394 93.987563,9.97668394 C92.713648,9.97668394 91.567205,10.5053708 90.7692987,11.3486 L89.6792698,10.2926936 C90.7566264,9.17975893 92.2882723,8.48445596 93.987563,8.48445596 C95.7014387,8.48445596 97.2447794,9.19174563 98.3234964,10.3214425 Z M100.5,8.20687933 L99.4118698,9.26404272 C98.0538809,7.86552609 96.1260026,6.99222798 93.987563,6.99222798 C91.8628921,6.99222798 89.9460798,7.85431655 88.5895579,9.23709441 L87.5,8.18164431 C89.1355496,6.52895605 91.4375103,5.5 93.987563,5.5 C96.5505699,5.5 98.8629578,6.53943672 100.5,8.20687933 Z" id="Wi-Fi" fill-rule="evenodd"></path>
                    <text id="Carrier" font-family="SFUIText-Regular, SF UI Text" font-size="12" font-weight="normal">
                        <tspan x="44" y="14.5">Framer</tspan>
                    </text>
                    <path d="M9.25,13 C7.73121694,13 6.5,11.7687831 6.5,10.25 C6.5,8.73121694 7.73121694,7.5 9.25,7.5 C10.7687831,7.5 12,8.73121694 12,10.25 C12,11.7687831 10.7687831,13 9.25,13 Z M16.25,13 C14.7312169,13 13.5,11.7687831 13.5,10.25 C13.5,8.73121694 14.7312169,7.5 16.25,7.5 C17.7687831,7.5 19,8.73121694 19,10.25 C19,11.7687831 17.7687831,13 16.25,13 Z M23.25,13 C21.7312169,13 20.5,11.7687831 20.5,10.25 C20.5,8.73121694 21.7312169,7.5 23.25,7.5 C24.7687831,7.5 26,8.73121694 26,10.25 C26,11.7687831 24.7687831,13 23.25,13 Z M30.25,13 C28.7312169,13 27.5,11.7687831 27.5,10.25 C27.5,8.73121694 28.7312169,7.5 30.25,7.5 C31.7687831,7.5 33,8.73121694 33,10.25 C33,11.7687831 31.7687831,13 30.25,13 Z M37.25,13 C35.7312169,13 34.5,11.7687831 34.5,10.25 C34.5,8.73121694 35.7312169,7.5 37.25,7.5 C38.7687831,7.5 40,8.73121694 40,10.25 C40,11.7687831 38.7687831,13 37.25,13 Z" id="Mobile-Signal" fill-rule="evenodd"></path>
                </g>
            </g>
        </g>
    </g>
</svg>