<?xml version="1.0" encoding="UTF-8"?>
<svg width="375px" height="44px" viewBox="0 0 375 44" version="1.1" xmlns="http://www.w3.org/2000/svg" xmlns:xlink="http://www.w3.org/1999/xlink">
    <!-- Generator: Sketch 44.1 (41455) - http://www.bohemiancoding.com/sketch -->
    <title>Bars/Search/Search Bar</title>
    <desc>Created with Sketch.</desc>
    <defs>
        <rect id="path-1" x="0" y="0" width="375" height="44"></rect>
        <filter x="-0.1%" y="-0.6%" width="100.1%" height="101.1%" filterUnits="objectBoundingBox" id="filter-2">
            <feOffset dx="0" dy="-0.5" in="SourceAlpha" result="shadowOffsetInner1"></feOffset>
            <feComposite in="shadowOffsetInner1" in2="SourceAlpha" operator="arithmetic" k2="-1" k3="1" result="shadowInnerInner1"></feComposite>
            <feColorMatrix values="0 0 0 0 0.709803922   0 0 0 0 0.709803922   0 0 0 0 0.709803922  0 0 0 1 0" type="matrix" in="shadowInnerInner1"></feColorMatrix>
        </filter>
    </defs>
    <g id="Symbols" stroke="none" stroke-width="1" fill="none" fill-rule="evenodd">
        <rect id="Background" fill="#EFEFF4" x="-1475" y="-444" width="3142" height="4674"></rect>
        <g id="Bars/Search/Search-Bar">
            <g id="Bar">
                <use fill="#C9C9CE" fill-rule="evenodd" xlink:href="#path-1"></use>
                <use fill="black" fill-opacity="1" filter="url(#filter-2)" xlink:href="#path-1"></use>
            </g>
            <rect id="Search-Bar" fill="#FFFFFF" x="8" y="7" width="359" height="30" rx="5"></rect>
            <g id="Float" transform="translate(154.000000, 13.000000)" fill="#8E8E93">
                <path d="M9.49724818,10.5041466 C9.57736566,10.5405938 9.65227305,10.5916129 9.71775156,10.6570914 L13.149991,14.0893308 C13.4448449,14.3841847 13.4484764,14.858606 13.1535412,15.1535412 C12.860648,15.4464344 12.3812716,15.4419317 12.0893308,15.149991 L8.65709139,11.7177516 C8.59136995,11.6520301 8.54011707,11.5773874 8.50341407,11.4977995 C7.66716939,12.1270411 6.6271393,12.5 5.5,12.5 C2.73857625,12.5 0.5,10.2614237 0.5,7.5 C0.5,4.73857625 2.73857625,2.5 5.5,2.5 C8.26142375,2.5 10.5,4.73857625 10.5,7.5 C10.5,8.62746846 10.1268232,9.66777681 9.49724818,10.5041466 Z M5.5,11.5 C7.709139,11.5 9.5,9.709139 9.5,7.5 C9.5,5.290861 7.709139,3.5 5.5,3.5 C3.290861,3.5 1.5,5.290861 1.5,7.5 C1.5,9.709139 3.290861,11.5 5.5,11.5 Z" id="Search-Icon"></path>
                <text id="Search" font-family="SFUIText-Regular, SF UI Text" font-size="14" font-weight="normal" letter-spacing="-0.150000006">
                    <tspan x="21.5" y="13.5">Searc</tspan>
                    <tspan x="58.3544922" y="13.5">h</tspan>
                </text>
            </g>
        </g>
    </g>
</svg>