<?xml version="1.0" encoding="UTF-8"?>
<svg width="248px" height="123px" viewBox="0 0 248 123" version="1.1" xmlns="http://www.w3.org/2000/svg" xmlns:xlink="http://www.w3.org/1999/xlink">
    <!-- Generator: Sketch 44.1 (41455) - http://www.bohemiancoding.com/sketch -->
    <title>Misc/3D Touch/Left/2 Actions</title>
    <desc>Created with Sketch.</desc>
    <defs>
        <path d="M237.142678,123 L10.8533312,123 C4.23296007,122.095997 0,117.224438 0,110 L0,116.5 L0,0 L248,0 L248,123 L247.996009,110 C247.996009,117.224438 243.763049,122.095997 237.142678,123 Z M16.576087,0 L13.1521739,0 C5.22858696,0 0,5.12293913 0,13.1521739 L0,0 L16.576087,0 Z M231.419922,0 L247.996009,0 L247.996009,13.1521739 C247.996009,5.12293913 242.767422,0 234.843835,0 L231.419922,0 Z" id="path-1"></path>
        <rect id="path-2" x="0" y="61" width="248" height="1"></rect>
    </defs>
    <g id="Components" stroke="none" stroke-width="1" fill="none" fill-rule="evenodd">
        <g id="Misc/3D-Touch/Left/2-Actions">
            <g id="Combined-Shape" fill-rule="evenodd">
                <use fill-opacity="0.8" fill="#FCFCFC" xlink:href="#path-1"></use>
                <use fill-opacity="0.5" fill="#FFFFFF" style="mix-blend-mode: soft-light;" xlink:href="#path-1"></use>
            </g>
            <g id="Overrides/Misc/3D-Touch-Cell-Left" transform="translate(0.000000, 62.000000)">
                <g id="Overrides/Misc/3D-Touch-Icon" transform="translate(13.000000, 13.000000)" fill-opacity="0.200000003" fill-rule="evenodd" fill="#4D4D4D">
                    <path d="M26.6304348,5.9659403e-16 C31.6727174,5.9659403e-16 35,3.26005217 35,8.36956522 L35,26.6304348 C35,31.7399478 31.6727174,35 26.6304348,35 L8.36956522,35 C3.32728261,35 0,31.7399478 0,26.6304348 L0,8.36956522 C0,3.26005217 3.32728261,5.9131444e-16 8.36956522,5.91314437e-16 L26.6304348,5.9659403e-16 Z" id="Icon-Placeholder"></path>
                </g>
                <text id="Cell-Title" font-family="SFUIText-Regular, SF UI Text" font-size="18" font-weight="normal" letter-spacing="-0.45" fill="#030303">
                    <tspan x="61" y="37">Action Two</tspan>
                </text>
            </g>
            <g id="Separator" fill-rule="evenodd" fill="#4D4D4D">
                <use fill-opacity="0.779999971" style="mix-blend-mode: color-burn;" xlink:href="#path-2"></use>
                <use style="mix-blend-mode: overlay;" xlink:href="#path-2"></use>
            </g>
            <g id="Overrides/Misc/3D-Touch-Cell-Left">
                <g id="Overrides/Misc/3D-Touch-Icon" transform="translate(13.000000, 13.000000)" fill-opacity="0.200000003" fill-rule="evenodd" fill="#4D4D4D">
                    <path d="M26.6304348,5.9659403e-16 C31.6727174,5.9659403e-16 35,3.26005217 35,8.36956522 L35,26.6304348 C35,31.7399478 31.6727174,35 26.6304348,35 L8.36956522,35 C3.32728261,35 0,31.7399478 0,26.6304348 L0,8.36956522 C0,3.26005217 3.32728261,5.9131444e-16 8.36956522,5.91314437e-16 L26.6304348,5.9659403e-16 Z" id="Icon-Placeholder"></path>
                </g>
                <text id="Cell-Title" font-family="SFUIText-Regular, SF UI Text" font-size="18" font-weight="normal" letter-spacing="-0.45" fill="#030303">
                    <tspan x="61" y="37">Action One</tspan>
                </text>
            </g>
        </g>
    </g>
</svg>