<?xml version="1.0" encoding="UTF-8"?>
<svg width="375px" height="216px" viewBox="0 0 375 216" version="1.1" xmlns="http://www.w3.org/2000/svg" xmlns:xlink="http://www.w3.org/1999/xlink">
    <!-- Generator: Sketch 44.1 (41455) - http://www.bohemiancoding.com/sketch -->
    <title>Keyboards/Light/Numeric </title>
    <desc>Created with Sketch.</desc>
    <defs>
        <rect id="path-1" x="0" y="0" width="375" height="216"></rect>
    </defs>
    <g id="Symbols" stroke="none" stroke-width="1" fill="none" fill-rule="evenodd">
        <rect id="Background" fill="#EFEFF4" x="-1017" y="-1935" width="3142" height="4674"></rect>
        <g id="Keyboards/Light/Numeric-">
            <g id="Base" fill="#ABB3BD">
                <use fill-opacity="0.599999964" xlink:href="#path-1"></use>
                <use fill-opacity="0.300000012" style="mix-blend-mode: soft-light;" xlink:href="#path-1"></use>
            </g>
            <g id="Delete" transform="translate(251.000000, 165.000000)">
                <rect id="Return" x="0" y="0" width="124" height="51"></rect>
                <path d="M51.0593445,26.5593445 C50.4742847,25.9742847 50.4813511,25.0186489 51.0593445,24.4406555 L57.7899148,17.7100853 C58.182084,17.317916 58.9489202,17 59.507484,17 L70.0020976,17 C71.933936,17 73.5000004,18.5688477 73.5000004,20.5017983 L73.5000004,30.4982017 C73.5000004,32.4321915 71.9230883,34 70.0020976,34 L59.5074839,34 C58.9510659,34 58.1771693,33.6771693 57.7899147,33.2899147 L51.0593445,26.5593445 Z M65.642663,25.4776902 L68.4667947,22.6535585 C68.7601056,22.3602476 68.7639833,21.8814962 68.4710901,21.588603 C68.1761549,21.2936677 67.7014001,21.2976328 67.4061346,21.5928983 L64.5820028,24.4170301 L61.757871,21.5928983 C61.4645602,21.2995874 60.9858087,21.2957097 60.6929155,21.588603 C60.3979803,21.8835382 60.4019454,22.358293 60.6972109,22.6535585 L63.5213426,25.4776902 L60.6972109,28.301822 C60.4039,28.5951329 60.4000223,29.0738843 60.6929155,29.3667775 C60.9878507,29.6617128 61.4626056,29.6577477 61.757871,29.3624822 L64.5820028,26.5383504 L67.4061346,29.3624822 C67.6994455,29.6557931 68.1781969,29.6596708 68.4710901,29.3667775 C68.7660253,29.0718423 68.7620602,28.5970875 68.4667947,28.301822 L65.642663,25.4776902 Z M52.7097195,26.2097195 C52.3177523,25.8177522 52.3189651,25.1810349 52.7097195,24.7902805 L58.6432454,18.8567547 C58.8402755,18.6597245 59.2256394,18.5 59.493741,18.5 L69.9972394,18.5 C71.1033332,18.5 71.9999994,19.3970601 71.9999994,20.5058586 L71.9999994,30.4941412 C71.9999994,31.6019464 71.1064568,32.4999999 69.9972394,32.4999999 L59.4937413,32.5 C59.2210556,32.5 58.8406433,32.340643 58.6432456,32.1432453 L52.7097195,26.2097195 Z" id="Back" fill="#030303"></path>
            </g>
            <g id="0" transform="translate(125.000000, 165.000000)">
                <rect fill="#FFFFFF" x="0" y="0" width="125" height="51"></rect>
                <text font-family="SFUIDisplay-Regular, SF UI Display" font-size="28" font-weight="normal" fill="#030303">
                    <tspan x="53.5097656" y="35.5">0</tspan>
                </text>
            </g>
            <g id="9" transform="translate(251.000000, 110.000000)">
                <rect fill="#FFFFFF" x="0" y="0" width="124" height="54"></rect>
                <text id="WXYZ" font-family="SFUIText-Regular, SF UI Text" font-size="11" font-weight="normal" letter-spacing="1" fill="#030303">
                    <tspan x="43.6960449" y="45">WXY</tspan>
                    <tspan x="72.026123" y="45">Z</tspan>
                </text>
                <text font-family="SFUIDisplay-Regular, SF UI Display" font-size="28" font-weight="normal" fill="#030303">
                    <tspan x="53.1191406" y="30">9</tspan>
                </text>
            </g>
            <g id="8" transform="translate(125.000000, 110.000000)">
                <rect fill="#FFFFFF" x="0" y="0" width="125" height="54"></rect>
                <text id="TUV" font-family="SFUIText-Regular, SF UI Text" font-size="11" font-weight="normal" letter-spacing="1" fill="#030303">
                    <tspan x="49.715332" y="45">TU</tspan>
                    <tspan x="66.8725586" y="45">V</tspan>
                </text>
                <text font-family="SFUIDisplay-Regular, SF UI Display" font-size="28" font-weight="normal" fill="#030303">
                    <tspan x="53.6123047" y="30">8</tspan>
                </text>
            </g>
            <g id="7" transform="translate(0.000000, 110.000000)">
                <rect fill="#FFFFFF" x="0" y="0" width="124" height="54"></rect>
                <text id="PQRS" font-family="SFUIText-Regular, SF UI Text" font-size="11" font-weight="normal" letter-spacing="1" fill="#030303">
                    <tspan x="45.1677246" y="45">PQR</tspan>
                    <tspan x="70.822998" y="45">S</tspan>
                </text>
                <text font-family="SFUIDisplay-Regular, SF UI Display" font-size="28" font-weight="normal" fill="#030303">
                    <tspan x="53.84375" y="30">7</tspan>
                </text>
            </g>
            <g id="6" transform="translate(251.000000, 55.000000)">
                <rect fill="#FFFFFF" x="0" y="0" width="124" height="54"></rect>
                <text id="MNO" font-family="SFUIText-Regular, SF UI Text" font-size="11" font-weight="normal" letter-spacing="1" fill="#030303">
                    <tspan x="47.3703613" y="45">MN</tspan>
                    <tspan x="67.1486816" y="45">O</tspan>
                </text>
                <text font-family="SFUIDisplay-Regular, SF UI Display" font-size="28" font-weight="normal" fill="#030303">
                    <tspan x="53.1191406" y="30">6</tspan>
                </text>
            </g>
            <g id="5" transform="translate(125.000000, 55.000000)">
                <rect fill="#FFFFFF" x="0" y="0" width="125" height="54"></rect>
                <text id="JKL" font-family="SFUIText-Regular, SF UI Text" font-size="11" font-weight="normal" letter-spacing="1" fill="#030303">
                    <tspan x="51.2944336" y="45">JK</tspan>
                    <tspan x="66.4589844" y="45">L</tspan>
                </text>
                <text font-family="SFUIDisplay-Regular, SF UI Display" font-size="28" font-weight="normal" fill="#030303">
                    <tspan x="53.8105469" y="30">5</tspan>
                </text>
            </g>
            <g id="4" transform="translate(0.000000, 55.000000)">
                <rect fill="#FFFFFF" x="0" y="0" width="124" height="54"></rect>
                <text id="GHI" font-family="SFUIText-Regular, SF UI Text" font-size="11" font-weight="normal" letter-spacing="1" fill="#030303">
                    <tspan x="50.8400879" y="45">GH</tspan>
                    <tspan x="69.2165527" y="45">I</tspan>
                </text>
                <text font-family="SFUIDisplay-Regular, SF UI Display" font-size="28" font-weight="normal" fill="#030303">
                    <tspan x="53.5302734" y="30">4</tspan>
                </text>
            </g>
            <g id="3" transform="translate(251.000000, 0.000000)">
                <rect fill="#FFFFFF" x="0" y="0" width="124" height="54"></rect>
                <text id="DEF" font-family="SFUIText-Regular, SF UI Text" font-size="11" font-weight="normal" letter-spacing="0.899999976" fill="#030303">
                    <tspan x="50.1827637" y="45">DE</tspan>
                    <tspan x="66.5223144" y="45">F</tspan>
                </text>
                <text font-family="SFUIDisplay-Regular, SF UI Display" font-size="28" font-weight="normal" fill="#030303">
                    <tspan x="53.2148438" y="30">3</tspan>
                </text>
            </g>
            <g id="2" transform="translate(125.000000, 0.000000)">
                <rect fill="#FFFFFF" x="0" y="0" width="125" height="54"></rect>
                <text id="ABC" font-family="SFUIText-Regular, SF UI Text" font-size="11" font-weight="normal" letter-spacing="1" fill="#030303">
                    <tspan x="49.7421875" y="45">AB</tspan>
                    <tspan x="66.3837891" y="45">C</tspan>
                </text>
                <text font-family="SFUIDisplay-Regular, SF UI Display" font-size="28" font-weight="normal" fill="#030303">
                    <tspan x="53.5771484" y="30">2</tspan>
                </text>
            </g>
            <g id="1">
                <rect fill="#FFFFFF" x="0" y="0" width="124" height="54"></rect>
                <text font-family="SFUIDisplay-Regular, SF UI Display" font-size="28" font-weight="normal" fill="#030303">
                    <tspan x="55.2929688" y="30">1</tspan>
                </text>
            </g>
        </g>
    </g>
</svg>