<?xml version="1.0" encoding="UTF-8"?>
<svg width="375px" height="80px" viewBox="0 0 375 80" version="1.1" xmlns="http://www.w3.org/2000/svg" xmlns:xlink="http://www.w3.org/1999/xlink">
    <!-- Generator: Sketch 44.1 (41455) - http://www.bohemiancoding.com/sketch -->
    <title>Misc/Video Player/Bottom (Portrait)</title>
    <desc>Created with Sketch.</desc>
    <defs>
        <rect id="path-1" x="0" y="0" width="375" height="80"></rect>
        <linearGradient x1="3.061617e-15%" y1="50%" x2="100%" y2="50%" id="linearGradient-2">
            <stop stop-color="#FFFFFF" offset="0%"></stop>
            <stop stop-color="#FFFFFF" offset="38.7081415%"></stop>
            <stop stop-color="#000000" offset="39.1174063%"></stop>
            <stop stop-color="#000000" stop-opacity="0.7" offset="39.5777279%"></stop>
            <stop stop-color="#000000" stop-opacity="0.7" offset="100%"></stop>
        </linearGradient>
        <circle id="path-3" cx="117" cy="8" r="7.5"></circle>
        <filter x="-43.3%" y="-16.7%" width="186.7%" height="193.3%" filterUnits="objectBoundingBox" id="filter-4">
            <feMorphology radius="0.5" operator="dilate" in="SourceAlpha" result="shadowSpreadOuter1"></feMorphology>
            <feOffset dx="0" dy="2" in="shadowSpreadOuter1" result="shadowOffsetOuter1"></feOffset>
            <feGaussianBlur stdDeviation="1" in="shadowOffsetOuter1" result="shadowBlurOuter1"></feGaussianBlur>
            <feComposite in="shadowBlurOuter1" in2="SourceAlpha" operator="out" result="shadowBlurOuter1"></feComposite>
            <feColorMatrix values="0 0 0 0 0   0 0 0 0 0   0 0 0 0 0  0 0 0 0.05 0" type="matrix" in="shadowBlurOuter1" result="shadowMatrixOuter1"></feColorMatrix>
            <feMorphology radius="0.5" operator="dilate" in="SourceAlpha" result="shadowSpreadOuter2"></feMorphology>
            <feOffset dx="0" dy="1" in="shadowSpreadOuter2" result="shadowOffsetOuter2"></feOffset>
            <feGaussianBlur stdDeviation="0.5" in="shadowOffsetOuter2" result="shadowBlurOuter2"></feGaussianBlur>
            <feComposite in="shadowBlurOuter2" in2="SourceAlpha" operator="out" result="shadowBlurOuter2"></feComposite>
            <feColorMatrix values="0 0 0 0 0   0 0 0 0 0   0 0 0 0 0  0 0 0 0.1 0" type="matrix" in="shadowBlurOuter2" result="shadowMatrixOuter2"></feColorMatrix>
            <feMorphology radius="0.5" operator="dilate" in="SourceAlpha" result="shadowSpreadOuter3"></feMorphology>
            <feOffset dx="0" dy="2" in="shadowSpreadOuter3" result="shadowOffsetOuter3"></feOffset>
            <feGaussianBlur stdDeviation="0.5" in="shadowOffsetOuter3" result="shadowBlurOuter3"></feGaussianBlur>
            <feComposite in="shadowBlurOuter3" in2="SourceAlpha" operator="out" result="shadowBlurOuter3"></feComposite>
            <feColorMatrix values="0 0 0 0 0   0 0 0 0 0   0 0 0 0 0  0 0 0 0.0510643116 0" type="matrix" in="shadowBlurOuter3" result="shadowMatrixOuter3"></feColorMatrix>
            <feMerge>
                <feMergeNode in="shadowMatrixOuter1"></feMergeNode>
                <feMergeNode in="shadowMatrixOuter2"></feMergeNode>
                <feMergeNode in="shadowMatrixOuter3"></feMergeNode>
            </feMerge>
        </filter>
        <path d="M0.5,3 L3.5,3 L3.5,19 L0.5,19 L0.5,3 Z M4.5,11 L18.5,3 L18.5,19 L4.5,11 Z M18.5,11 L32.5,3 L32.5,19 L18.5,11 Z" id="path-5"></path>
        <path d="M90,1.24740112 C90,0.834622879 90.3397772,0.5 90.7599041,0.5 L95.2400959,0.5 C95.6597793,0.5 96,0.829859853 96,1.24740112 L96,20.7525989 C96,21.1653771 95.6602228,21.5 95.2400959,21.5 L90.7599041,21.5 C90.3402207,21.5 90,21.1701401 90,20.7525989 L90,1.24740112 Z M103,1.24740112 C103,0.834622879 103.339777,0.5 103.759904,0.5 L108.240096,0.5 C108.659779,0.5 109,0.829859853 109,1.24740112 L109,20.7525989 C109,21.1653771 108.660223,21.5 108.240096,21.5 L103.759904,21.5 C103.340221,21.5 103,21.1701401 103,20.7525989 L103,1.24740112 Z" id="path-6"></path>
        <path d="M166.5,3 L180.5,11 L166.5,19 L166.5,3 Z M180.5,3 L194.5,11 L180.5,19 L180.5,3 Z M195.5,3 L198.5,3 L198.5,19 L195.5,19 L195.5,3 Z" id="path-7"></path>
        <path d="M349,58 L341,58 L341,56.5 L346.5,56.5 L339.5,49.5 L340.5,48.5 L347.5,55.5 L347.5,50 L349,50 L349,58 Z M350.5,59.5 L358.5,59.5 L358.5,61 L353,61 L360,68 L359,69 L352,62 L352,67.5 L350.5,67.5 L350.5,59.5 Z" id="path-8"></path>
    </defs>
    <g id="Components" stroke="none" stroke-width="1" fill="none" fill-rule="evenodd">
        <g id="Misc/Video-Player/Bottom-(Portrait)">
            <g id="Bottom-Bar" fill="#FFFFFF">
                <use fill-opacity="0.249999985" xlink:href="#path-1"></use>
                <use fill-opacity="0.25" style="mix-blend-mode: soft-light;" xlink:href="#path-1"></use>
            </g>
            <g id="Volume" stroke-width="1" transform="translate(15.000000, 51.000000)">
                <rect id="Tracker" fill="url(#linearGradient-2)" x="0" y="6.5" width="299.5" height="3" rx="1.5"></rect>
                <g id="Knob">
                    <use fill="black" fill-opacity="1" filter="url(#filter-4)" xlink:href="#path-3"></use>
                    <use fill="#FFFFFF" fill-rule="evenodd" xlink:href="#path-3"></use>
                    <circle stroke-opacity="0.1" stroke="#000000" stroke-width="0.5" cx="117" cy="8" r="7.75"></circle>
                </g>
            </g>
            <g id="Playback-Controls" stroke-width="1" transform="translate(88.000000, 11.000000)" fill="#000000" fill-opacity="0.5">
                <g id="Rewind">
                    <use xlink:href="#path-5"></use>
                    <use style="mix-blend-mode: overlay;" xlink:href="#path-5"></use>
                </g>
                <g id="Pause">
                    <use xlink:href="#path-6"></use>
                    <use style="mix-blend-mode: overlay;" xlink:href="#path-6"></use>
                </g>
                <g id="FastForward">
                    <use xlink:href="#path-7"></use>
                    <use style="mix-blend-mode: overlay;" xlink:href="#path-7"></use>
                </g>
            </g>
            <g id="Expand" fill-opacity="0.5" fill="#000000">
                <use xlink:href="#path-8"></use>
                <use style="mix-blend-mode: overlay;" xlink:href="#path-8"></use>
            </g>
        </g>
    </g>
</svg>